Oxygen-Medium.ufo
<glyph name="numbersign" format="1">
  <advance width="1165"/>
  <unicode hex="0023"/>
  <outline>
    <contour>
      <point x="452" y="561" type="line" smooth="no"/>
      <point x="665" y="561" type="line" smooth="no"/>
      <point x="735" y="914" type="line" smooth="no"/>
      <point x="522" y="914" type="line" smooth="no"/>
    </contour>
    <contour>
      <point x="183" y="-19" type="line" smooth="no"/>
      <point x="258" y="407" type="line" smooth="no"/>
      <point x="70" y="407" type="line" smooth="no"/>
      <point x="80" y="561" type="line" smooth="no"/>
      <point x="286" y="561" type="line" smooth="no"/>
      <point x="344" y="913" type="line" smooth="no"/>
      <point x="148" y="913" type="line" smooth="no"/>
      <point x="156" y="1067" type="line" smooth="no"/>
      <point x="372" y="1067" type="line" smooth="no"/>
      <point x="454" y="1460" type="line" smooth="no"/>
      <point x="630" y="1460" type="line" smooth="no"/>
      <point x="552" y="1067" type="line" smooth="no"/>
      <point x="764" y="1067" type="line" smooth="no"/>
      <point x="837" y="1460" type="line" smooth="no"/>
      <point x="998" y="1460" type="line" smooth="no"/>
      <point x="928" y="1067" type="line" smooth="no"/>
      <point x="1089" y="1067" type="line" smooth="no"/>
      <point x="1076" y="914" type="line" smooth="no"/>
      <point x="899" y="914" type="line" smooth="no"/>
      <point x="836" y="561" type="line" smooth="no"/>
      <point x="1009" y="561" type="line" smooth="no"/>
      <point x="999" y="407" type="line" smooth="no"/>
      <point x="811" y="407" type="line" smooth="no"/>
      <point x="728" y="-19" type="line" smooth="no"/>
      <point x="553" y="-19" type="line" smooth="no"/>
      <point x="635" y="407" type="line" smooth="no"/>
      <point x="424" y="407" type="line" smooth="no"/>
      <point x="344" y="-19" type="line" smooth="no"/>
    </contour>
  </outline>
</glyph>
<glyph name="dollar" format="1">
  <advance width="1216"/>
  <unicode hex="0024"/>
  <outline>
    <contour>
      <point x="665" y="173" type="line" smooth="no"/>
      <point x="819" y="188"/>
      <point x="899" y="270"/>
      <point x="899" y="420" type="curve" smooth="yes"/>
      <point x="899" y="524"/>
      <point x="847" y="592"/>
      <point x="705" y="633" type="curve" smooth="yes"/>
      <point x="702" y="634"/>
      <point x="668" y="643"/>
      <point x="665" y="644" type="curve" smooth="no"/>
    </contour>
    <contour>
      <point x="568" y="899" type="curve" smooth="no"/>
      <point x="568" y="1314" type="line" smooth="no"/>
      <point x="416" y="1301"/>
      <point x="335" y="1237"/>
      <point x="333" y="1103" type="curve" smooth="no"/>
      <point x="333" y="1004"/>
      <point x="393" y="947"/>
      <point x="500" y="918" type="curve" smooth="yes"/>
      <point x="506" y="916"/>
      <point x="561" y="902"/>
    </contour>
    <contour>
      <point x="568" y="-204" type="line" smooth="no"/>
      <point x="567" y="-21" type="line" smooth="no"/>
      <point x="357" y="-16"/>
      <point x="199" y="39"/>
      <point x="94" y="101" type="curve" smooth="no"/>
      <point x="153" y="283" type="line" smooth="no"/>
      <point x="270" y="222"/>
      <point x="417" y="176"/>
      <point x="568" y="170" type="curve" smooth="no"/>
      <point x="568" y="671" type="line" smooth="no"/>
      <point x="544" y="678"/>
      <point x="431" y="709"/>
      <point x="413" y="716" type="curve" smooth="no"/>
      <point x="222" y="774"/>
      <point x="98" y="889"/>
      <point x="98" y="1091" type="curve" smooth="yes"/>
      <point x="98" y="1353"/>
      <point x="287" y="1488"/>
      <point x="568" y="1505" type="curve" smooth="no"/>
      <point x="568" y="1666" type="line" smooth="no"/>
      <point x="665" y="1666" type="line" smooth="no"/>
      <point x="665" y="1506" type="line" smooth="no"/>
      <point x="829" y="1501"/>
      <point x="971" y="1463"/>
      <point x="1081" y="1399" type="curve" smooth="no"/>
      <point x="1014" y="1227" type="line" smooth="no"/>
      <point x="930" y="1268"/>
      <point x="799" y="1311"/>
      <point x="665" y="1317" type="curve" smooth="no"/>
      <point x="665" y="871" type="line" smooth="no"/>
      <point x="674" y="867"/>
      <point x="747" y="849"/>
      <point x="759" y="845" type="curve" smooth="yes"/>
      <point x="1004" y="774"/>
      <point x="1129" y="662"/>
      <point x="1129" y="422" type="curve" smooth="yes"/>
      <point x="1129" y="146"/>
      <point x="944" y="1"/>
      <point x="665" y="-19" type="curve" smooth="no"/>
      <point x="665" y="-204" type="line" smooth="no"/>
    </contour>
  </outline>
</glyph>
<glyph name="parenright" format="1">
  <advance width="631"/>
  <unicode hex="0029"/>
  <outline>
    <contour>
      <point x="58" y="-273" type="line" smooth="no"/>
      <point x="191" y="-75"/>
      <point x="321" y="271"/>
      <point x="321" y="600" type="curve" smooth="yes"/>
      <point x="321" y="939"/>
      <point x="195" y="1279"/>
      <point x="57" y="1487" type="curve" smooth="no"/>
      <point x="255" y="1487" type="line" smooth="no"/>
      <point x="425" y="1242"/>
      <point x="534" y="942"/>
      <point x="534" y="598" type="curve" smooth="yes"/>
      <point x="534" y="256"/>
      <point x="422" y="-42"/>
      <point x="254" y="-273" type="curve" smooth="no"/>
    </contour>
  </outline>
</glyph>
<glyph name="one" format="1">
  <advance width="658"/>
  <unicode hex="0031"/>
  <outline>
    <contour>
      <point x="294" y="0" type="line" smooth="no"/>
      <point x="294" y="1262" type="line" smooth="no"/>
      <point x="247" y="1231"/>
      <point x="83" y="1164"/>
      <point x="40" y="1150" type="curve" smooth="no"/>
      <point x="40" y="1336" type="line" smooth="no"/>
      <point x="93" y="1359"/>
      <point x="273" y="1443"/>
      <point x="320" y="1476" type="curve" smooth="no"/>
      <point x="512" y="1476" type="line" smooth="no"/>
      <point x="512" y="0" type="line" smooth="no"/>
    </contour>
  </outline>
</glyph>
<glyph name="two" format="1">
  <advance width="1082"/>
  <unicode hex="0032"/>
  <outline>
    <contour>
      <point x="98" y="0" type="line" smooth="no"/>
      <point x="84" y="192" type="line" smooth="no"/>
      <point x="572" y="739" type="line" smooth="no"/>
      <point x="716" y="897"/>
      <point x="751" y="987"/>
      <point x="751" y="1088" type="curve" smooth="yes"/>
      <point x="751" y="1233"/>
      <point x="657" y="1321"/>
      <point x="507" y="1321" type="curve" smooth="yes"/>
      <point x="380" y="1321"/>
      <point x="252" y="1274"/>
      <point x="174" y="1199" type="curve" smooth="no"/>
      <point x="107" y="1375" type="line" smooth="no"/>
      <point x="200" y="1459"/>
      <point x="332" y="1506"/>
      <point x="521" y="1506" type="curve" smooth="yes"/>
      <point x="796" y="1506"/>
      <point x="984" y="1355"/>
      <point x="984" y="1095" type="curve" smooth="yes"/>
      <point x="984" y="919"/>
      <point x="889" y="761"/>
      <point x="712" y="574" type="curve" smooth="no"/>
      <point x="340" y="177" type="line" smooth="no"/>
      <point x="977" y="177" type="line" smooth="no"/>
      <point x="963" y="0" type="line" smooth="no"/>
    </contour>
  </outline>
</glyph>
<glyph name="three" format="1">
  <advance width="1089"/>
  <unicode hex="0033"/>
  <outline>
    <contour>
      <point x="490" y="-22" type="curve" smooth="yes"/>
      <point x="308" y="-22"/>
      <point x="156" y="33"/>
      <point x="82" y="98" type="curve" smooth="no"/>
      <point x="147" y="268" type="line" smooth="no"/>
      <point x="221" y="208"/>
      <point x="348" y="160"/>
      <point x="491" y="160" type="curve" smooth="yes"/>
      <point x="664" y="160"/>
      <point x="780" y="256"/>
      <point x="780" y="412" type="curve" smooth="yes"/>
      <point x="780" y="641"/>
      <point x="606" y="685"/>
      <point x="360" y="690" type="curve" smooth="yes"/>
      <point x="348" y="690"/>
      <point x="313" y="691"/>
      <point x="301" y="691" type="curve" smooth="no"/>
      <point x="301" y="868" type="line" smooth="no"/>
      <point x="354" y="868" type="line" smooth="no"/>
      <point x="567" y="871"/>
      <point x="740" y="908"/>
      <point x="740" y="1103" type="curve" smooth="yes"/>
      <point x="740" y="1236"/>
      <point x="651" y="1324"/>
      <point x="481" y="1324" type="curve" smooth="yes"/>
      <point x="347" y="1324"/>
      <point x="229" y="1283"/>
      <point x="146" y="1224" type="curve" smooth="no"/>
      <point x="82" y="1394" type="line" smooth="no"/>
      <point x="184" y="1463"/>
      <point x="316" y="1506"/>
      <point x="512" y="1506" type="curve" smooth="yes"/>
      <point x="764" y="1506"/>
      <point x="965" y="1359"/>
      <point x="965" y="1125" type="curve" smooth="yes"/>
      <point x="965" y="950"/>
      <point x="874" y="833"/>
      <point x="715" y="782" type="curve" smooth="no"/>
      <point x="898" y="744"/>
      <point x="1004" y="597"/>
      <point x="1004" y="404" type="curve" smooth="yes"/>
      <point x="1004" y="133"/>
      <point x="780" y="-22"/>
    </contour>
  </outline>
</glyph>
<glyph name="four" format="1">
  <advance width="1234"/>
  <unicode hex="0034"/>
  <outline>
    <contour>
      <point x="320" y="519" type="line" smooth="no"/>
      <point x="767" y="519" type="line" smooth="no"/>
      <point x="767" y="1233" type="line" smooth="no"/>
    </contour>
    <contour>
      <point x="767" y="0" type="line" smooth="no"/>
      <point x="767" y="346" type="line" smooth="no"/>
      <point x="99" y="346" type="line" smooth="no"/>
      <point x="99" y="513" type="line" smooth="no"/>
      <point x="722" y="1475" type="line" smooth="no"/>
      <point x="988" y="1475" type="line" smooth="no"/>
      <point x="988" y="520" type="line" smooth="no"/>
      <point x="1170" y="520" type="line" smooth="no"/>
      <point x="1156" y="346" type="line" smooth="no"/>
      <point x="988" y="346" type="line" smooth="no"/>
      <point x="988" y="0" type="line" smooth="no"/>
    </contour>
  </outline>
</glyph>
<glyph name="five" format="1">
  <advance width="1156"/>
  <unicode hex="0035"/>
  <outline>
    <contour>
      <point x="533" y="-22" type="curve" smooth="yes"/>
      <point x="335" y="-22"/>
      <point x="165" y="69"/>
      <point x="112" y="117" type="curve" smooth="no"/>
      <point x="185" y="283" type="line" smooth="no"/>
      <point x="223" y="253"/>
      <point x="354" y="166"/>
      <point x="521" y="166" type="curve" smooth="yes"/>
      <point x="728" y="166"/>
      <point x="838" y="296"/>
      <point x="838" y="473" type="curve" smooth="yes"/>
      <point x="838" y="639"/>
      <point x="737" y="753"/>
      <point x="569" y="753" type="curve" smooth="yes"/>
      <point x="484" y="753"/>
      <point x="405" y="721"/>
      <point x="339" y="650" type="curve" smooth="no"/>
      <point x="181" y="677" type="line" smooth="no"/>
      <point x="220" y="1475" type="line" smooth="no"/>
      <point x="1002" y="1475" type="line" smooth="no"/>
      <point x="988" y="1289" type="line" smooth="no"/>
      <point x="410" y="1289" type="line" smooth="no"/>
      <point x="407" y="1202"/>
      <point x="398" y="963"/>
      <point x="396" y="877" type="curve" smooth="no"/>
      <point x="466" y="918"/>
      <point x="537" y="935"/>
      <point x="608" y="935" type="curve" smooth="yes"/>
      <point x="893" y="935"/>
      <point x="1060" y="739"/>
      <point x="1060" y="472" type="curve" smooth="yes"/>
      <point x="1060" y="178"/>
      <point x="867" y="-22"/>
    </contour>
  </outline>
</glyph>
<glyph name="eight" format="1">
  <advance width="1165"/>
  <unicode hex="0038"/>
  <outline>
    <contour>
      <point x="586" y="843" type="curve" smooth="no"/>
      <point x="756" y="882"/>
      <point x="851" y="977"/>
      <point x="851" y="1129" type="curve" smooth="yes"/>
      <point x="851" y="1262"/>
      <point x="732" y="1339"/>
      <point x="586" y="1339" type="curve" smooth="yes"/>
      <point x="440" y="1339"/>
      <point x="317" y="1262"/>
      <point x="317" y="1129" type="curve" smooth="yes"/>
      <point x="317" y="976"/>
      <point x="417" y="881"/>
    </contour>
    <contour>
      <point x="586" y="146" type="curve" smooth="yes"/>
      <point x="758" y="146"/>
      <point x="873" y="238"/>
      <point x="873" y="395" type="curve" smooth="yes"/>
      <point x="873" y="555"/>
      <point x="748" y="651"/>
      <point x="586" y="690" type="curve" smooth="no"/>
      <point x="419" y="650"/>
      <point x="295" y="554"/>
      <point x="295" y="395" type="curve" smooth="yes"/>
      <point x="295" y="238"/>
      <point x="413" y="146"/>
    </contour>
    <contour>
      <point x="586" y="-22" type="curve" smooth="yes"/>
      <point x="311" y="-22"/>
      <point x="82" y="120"/>
      <point x="82" y="387" type="curve" smooth="yes"/>
      <point x="82" y="578"/>
      <point x="193" y="710"/>
      <point x="365" y="777" type="curve" smooth="no"/>
      <point x="212" y="840"/>
      <point x="111" y="950"/>
      <point x="111" y="1128" type="curve" smooth="yes"/>
      <point x="111" y="1375"/>
      <point x="318" y="1506"/>
      <point x="585" y="1506" type="curve" smooth="yes"/>
      <point x="852" y="1506"/>
      <point x="1056" y="1374"/>
      <point x="1056" y="1128" type="curve" smooth="yes"/>
      <point x="1056" y="951"/>
      <point x="962" y="840"/>
      <point x="822" y="777" type="curve" smooth="no"/>
      <point x="983" y="709"/>
      <point x="1085" y="576"/>
      <point x="1085" y="387" type="curve" smooth="yes"/>
      <point x="1085" y="119"/>
      <point x="859" y="-22"/>
    </contour>
  </outline>
</glyph>
<glyph name="nine" format="1">
  <advance width="1192"/>
  <unicode hex="0039"/>
  <outline>
    <contour>
      <point x="609" y="743" type="curve" smooth="yes"/>
      <point x="817" y="743"/>
      <point x="898" y="873"/>
      <point x="898" y="1041" type="curve" smooth="yes"/>
      <point x="898" y="1207"/>
      <point x="804" y="1329"/>
      <point x="615" y="1329" type="curve" smooth="yes"/>
      <point x="423" y="1329"/>
      <point x="313" y="1202"/>
      <point x="313" y="1036" type="curve" smooth="yes"/>
      <point x="313" y="861"/>
      <point x="414" y="743"/>
    </contour>
    <contour>
      <point x="246" y="0" type="line" smooth="no"/>
      <point x="731" y="615" type="line" smooth="no"/>
      <point x="679" y="592"/>
      <point x="625" y="575"/>
      <point x="562" y="575" type="curve" smooth="yes"/>
      <point x="292" y="575"/>
      <point x="84" y="760"/>
      <point x="84" y="1035" type="curve" smooth="yes"/>
      <point x="84" y="1314"/>
      <point x="295" y="1506"/>
      <point x="605" y="1506" type="curve" smooth="yes"/>
      <point x="927" y="1506"/>
      <point x="1130" y="1306"/>
      <point x="1130" y="1024" type="curve" smooth="yes"/>
      <point x="1130" y="832"/>
      <point x="1053" y="698"/>
      <point x="928" y="529" type="curve" smooth="yes"/>
      <point x="870" y="452"/>
      <point x="519" y="0"/>
      <point x="519" y="0" type="curve" smooth="no"/>
    </contour>
  </outline>
</glyph>
<glyph name="colon" format="1">
  <advance width="475"/>
  <unicode hex="003a"/>
  <outline>
    <contour>
      <point x="121" y="865" type="line" smooth="no"/>
      <point x="121" y="1114" type="line" smooth="no"/>
      <point x="359" y="1114" type="line" smooth="no"/>
      <point x="359" y="865" type="line" smooth="no"/>
    </contour>
    <contour>
      <point x="121" y="-15" type="line" smooth="no"/>
      <point x="121" y="235" type="line" smooth="no"/>
      <point x="359" y="235" type="line" smooth="no"/>
      <point x="359" y="-15" type="line" smooth="no"/>
    </contour>
  </outline>
</glyph>
<glyph name="semicolon" format="1">
  <advance width="480"/>
  <unicode hex="003b"/>
  <outline>
    <contour>
      <point x="147" y="865" type="line" smooth="no"/>
      <point x="147" y="1114" type="line" smooth="no"/>
      <point x="385" y="1114" type="line" smooth="no"/>
      <point x="385" y="865" type="line" smooth="no"/>
    </contour>
    <contour>
      <point x="121" y="-316" type="line" smooth="no"/>
      <point x="177" y="223" type="line" smooth="no"/>
      <point x="383" y="223" type="line" smooth="no"/>
      <point x="258" y="-316" type="line" smooth="no"/>
    </contour>
  </outline>
</glyph>
<glyph name="less" format="1">
  <advance width="1186"/>
  <unicode hex="003c"/>
  <outline>
    <contour>
      <point x="1072" y="173" type="line" smooth="no"/>
      <point x="109" y="626" type="line" smooth="no"/>
      <point x="109" y="738" type="line" smooth="no"/>
      <point x="1073" y="1225" type="line" smooth="no"/>
      <point x="1073" y="1041" type="line" smooth="no"/>
      <point x="336" y="687" type="line" smooth="no"/>
      <point x="1072" y="356" type="line" smooth="no"/>
    </contour>
  </outline>
</glyph>
<glyph name="greater" format="1">
  <advance width="1187"/>
  <unicode hex="003e"/>
  <outline>
    <contour>
      <point x="117" y="176" type="line" smooth="no"/>
      <point x="117" y="360" type="line" smooth="no"/>
      <point x="853" y="687" type="line" smooth="no"/>
      <point x="118" y="1046" type="line" smooth="no"/>
      <point x="118" y="1228" type="line" smooth="no"/>
      <point x="1081" y="737" type="line" smooth="no"/>
      <point x="1081" y="626" type="line" smooth="no"/>
    </contour>
  </outline>
</glyph>
<glyph name="A" format="1">
  <advance width="1333"/>
  <unicode hex="0041"/>
  <outline>
    <contour>
      <point x="458" y="615" type="curve" smooth="no"/>
      <point x="880" y="615" type="line" smooth="no"/>
      <point x="880" y="615"/>
      <point x="686" y="1209"/>
      <point x="673" y="1254" type="curve" smooth="no"/>
      <point x="661" y="1215"/>
      <point x="458" y="615"/>
    </contour>
    <contour>
      <point x="0" y="0" type="line" smooth="no"/>
      <point x="552" y="1473" type="line" smooth="no"/>
      <point x="792" y="1473" type="line" smooth="no"/>
      <point x="1333" y="0" type="line" smooth="no"/>
      <point x="1101" y="0" type="line" smooth="no"/>
      <point x="943" y="440" type="line" smooth="no"/>
      <point x="394" y="440" type="line" smooth="no"/>
      <point x="234" y="0" type="line" smooth="no"/>
    </contour>
  </outline>
</glyph>
<glyph name="B" format="1">
  <advance width="1311"/>
  <unicode hex="0042"/>
  <outline>
    <contour>
      <point x="391" y="852" type="line" smooth="no"/>
      <point x="662" y="852" type="line" smooth="yes"/>
      <point x="845" y="852"/>
      <point x="952" y="909"/>
      <point x="952" y="1076" type="curve" smooth="yes"/>
      <point x="952" y="1253"/>
      <point x="828" y="1297"/>
      <point x="598" y="1297" type="curve" smooth="yes"/>
      <point x="391" y="1297" type="line" smooth="no"/>
    </contour>
    <contour>
      <point x="391" y="171" type="line" smooth="no"/>
      <point x="660" y="171" type="line" smooth="yes"/>
      <point x="885" y="171"/>
      <point x="1002" y="253"/>
      <point x="1002" y="434" type="curve" smooth="yes"/>
      <point x="1002" y="622"/>
      <point x="879" y="686"/>
      <point x="637" y="686" type="curve" smooth="yes"/>
      <point x="391" y="686" type="line" smooth="no"/>
    </contour>
    <contour>
      <point x="165" y="0" type="line" smooth="no"/>
      <point x="165" y="1471" type="line" smooth="no"/>
      <point x="607" y="1471" type="line" smooth="yes"/>
      <point x="982" y="1471"/>
      <point x="1176" y="1370"/>
      <point x="1176" y="1105" type="curve" smooth="yes"/>
      <point x="1176" y="1022"/>
      <point x="1153" y="849"/>
      <point x="944" y="783" type="curve" smooth="no"/>
      <point x="1137" y="740"/>
      <point x="1234" y="602"/>
      <point x="1234" y="423" type="curve" smooth="yes"/>
      <point x="1234" y="151"/>
      <point x="1042" y="0"/>
      <point x="696" y="0" type="curve" smooth="yes"/>
    </contour>
  </outline>
</glyph>
<glyph name="C" format="1">
  <advance width="1296"/>
  <unicode hex="0043"/>
  <outline>
    <contour>
      <point x="801" y="-21" type="curve" smooth="yes"/>
      <point x="363" y="-21"/>
      <point x="106" y="274"/>
      <point x="106" y="742" type="curve" smooth="yes"/>
      <point x="106" y="1191"/>
      <point x="383" y="1494"/>
      <point x="816" y="1494" type="curve" smooth="yes"/>
      <point x="979" y="1494"/>
      <point x="1123" y="1458"/>
      <point x="1243" y="1379" type="curve" smooth="no"/>
      <point x="1167" y="1204" type="line" smooth="no"/>
      <point x="1069" y="1264"/>
      <point x="956" y="1306"/>
      <point x="820" y="1306" type="curve" smooth="yes"/>
      <point x="516" y="1306"/>
      <point x="341" y="1070"/>
      <point x="341" y="734" type="curve" smooth="yes"/>
      <point x="341" y="391"/>
      <point x="503" y="167"/>
      <point x="822" y="167" type="curve" smooth="yes"/>
      <point x="945" y="167"/>
      <point x="1068" y="201"/>
      <point x="1181" y="258" type="curve" smooth="no"/>
      <point x="1214" y="76" type="line" smooth="no"/>
      <point x="1099" y="6"/>
      <point x="963" y="-21"/>
    </contour>
  </outline>
</glyph>
<glyph name="D" format="1">
  <advance width="1508"/>
  <unicode hex="0044"/>
  <outline>
    <contour>
      <point x="166" y="0" type="line" smooth="no"/>
      <point x="166" y="1471" type="line" smooth="no"/>
      <point x="584" y="1471" type="line" smooth="yes"/>
      <point x="1080" y="1471"/>
      <point x="1403" y="1244"/>
      <point x="1403" y="739" type="curve" smooth="yes"/>
      <point x="1403" y="256"/>
      <point x="1102" y="0"/>
      <point x="610" y="0" type="curve" smooth="yes"/>
    </contour>
    <contour>
      <point x="392" y="187" type="line" smooth="no"/>
      <point x="616" y="187" type="line" smooth="yes"/>
      <point x="975" y="187"/>
      <point x="1168" y="373"/>
      <point x="1168" y="734" type="curve" smooth="yes"/>
      <point x="1168" y="1128"/>
      <point x="960" y="1284"/>
      <point x="587" y="1284" type="curve" smooth="yes"/>
      <point x="392" y="1284" type="line" smooth="no"/>
    </contour>
  </outline>
</glyph>
<glyph name="I" format="1">
  <advance width="573"/>
  <unicode hex="0049"/>
  <outline>
    <contour>
      <point x="173" y="0" type="line" smooth="no"/>
      <point x="173" y="1471" type="line" smooth="no"/>
      <point x="399" y="1471" type="line" smooth="no"/>
      <point x="399" y="0" type="line" smooth="no"/>
    </contour>
  </outline>
</glyph>
<glyph name="J" format="1">
  <advance width="595"/>
  <unicode hex="004a"/>
  <outline>
    <contour>
      <point x="-48" y="-271" type="curve" smooth="no"/>
      <point x="-64" y="-91" type="line" smooth="no"/>
      <point x="-48" y="-94"/>
      <point x="12" y="-95"/>
      <point x="27" y="-95" type="curve" smooth="yes"/>
      <point x="195" y="-95"/>
      <point x="217" y="-4"/>
      <point x="217" y="153" type="curve" smooth="yes"/>
      <point x="217" y="1481" type="line" smooth="no"/>
      <point x="445" y="1481" type="line" smooth="no"/>
      <point x="445" y="191" type="line" smooth="yes"/>
      <point x="445" y="-127"/>
      <point x="370" y="-276"/>
      <point x="19" y="-276" type="curve" smooth="yes"/>
      <point x="2" y="-276"/>
      <point x="-34" y="-274"/>
    </contour>
  </outline>
</glyph>
<glyph name="M" format="1">
  <advance width="1830"/>
  <unicode hex="004d"/>
  <outline>
    <contour>
      <point x="166" y="0" type="line" smooth="no"/>
      <point x="166" y="1471" type="line" smooth="no"/>
      <point x="441" y="1471" type="line" smooth="no"/>
      <point x="918" y="358" type="line" smooth="no"/>
      <point x="1393" y="1471" type="line" smooth="no"/>
      <point x="1664" y="1471" type="line" smooth="no"/>
      <point x="1664" y="0" type="line" smooth="no"/>
      <point x="1452" y="0" type="line" smooth="no"/>
      <point x="1452" y="800" type="line" smooth="no"/>
      <point x="1459" y="1187" type="line" smooth="no"/>
      <point x="1422" y="1082" type="line" smooth="no"/>
      <point x="1012" y="96" type="line" smooth="no"/>
      <point x="809" y="96" type="line" smooth="no"/>
      <point x="402" y="1086" type="line" smooth="no"/>
      <point x="364" y="1192" type="line" smooth="no"/>
      <point x="372" y="797" type="line" smooth="no"/>
      <point x="372" y="0" type="line" smooth="no"/>
    </contour>
  </outline>
</glyph>
<glyph name="P" format="1">
  <advance width="1205"/>
  <unicode hex="0050"/>
  <outline>
    <contour>
      <point x="598" y="764" type="curve" smooth="yes"/>
      <point x="909" y="764"/>
      <point x="944" y="914"/>
      <point x="944" y="1052" type="curve" smooth="yes"/>
      <point x="944" y="1222"/>
      <point x="823" y="1299"/>
      <point x="637" y="1299" type="curve" smooth="yes"/>
      <point x="374" y="1299" type="line" smooth="no"/>
      <point x="374" y="766" type="line" smooth="no"/>
      <point x="380" y="765"/>
      <point x="557" y="764"/>
    </contour>
    <contour>
      <point x="148" y="0" type="line" smooth="no"/>
      <point x="148" y="1481" type="line" smooth="no"/>
      <point x="634" y="1481" type="line" smooth="yes"/>
      <point x="946" y="1481"/>
      <point x="1168" y="1358"/>
      <point x="1168" y="1059" type="curve" smooth="yes"/>
      <point x="1168" y="788"/>
      <point x="1046" y="588"/>
      <point x="606" y="588" type="curve" smooth="yes"/>
      <point x="569" y="588"/>
      <point x="443" y="592"/>
      <point x="374" y="598" type="curve" smooth="no"/>
      <point x="374" y="0" type="line" smooth="no"/>
    </contour>
  </outline>
</glyph>
<glyph name="V" format="1">
  <advance width="1284"/>
  <unicode hex="0056"/>
  <outline>
    <contour>
      <point x="528" y="0" type="line" smooth="no"/>
      <point x="-5" y="1471" type="line" smooth="no"/>
      <point x="230" y="1471" type="line" smooth="no"/>
      <point x="549" y="551" type="line" smooth="yes"/>
      <point x="573" y="481"/>
      <point x="625" y="312"/>
      <point x="645" y="244" type="curve" smooth="no"/>
      <point x="651" y="276"/>
      <point x="705" y="456"/>
      <point x="739" y="552" type="curve" smooth="yes"/>
      <point x="802" y="731"/>
      <point x="996" y="1302"/>
      <point x="1056" y="1471" type="curve" smooth="no"/>
      <point x="1290" y="1471" type="line" smooth="no"/>
      <point x="759" y="0" type="line" smooth="no"/>
    </contour>
  </outline>
</glyph>
<glyph name="X" format="1">
  <advance width="1292"/>
  <unicode hex="0058"/>
  <outline>
    <contour>
      <point x="-1" y="0" type="line" smooth="no"/>
      <point x="508" y="760" type="line" smooth="no"/>
      <point x="34" y="1471" type="line" smooth="no"/>
      <point x="291" y="1471" type="line" smooth="no"/>
      <point x="653" y="904" type="line" smooth="no"/>
      <point x="1028" y="1471" type="line" smooth="no"/>
      <point x="1269" y="1471" type="line" smooth="no"/>
      <point x="788" y="759" type="line" smooth="no"/>
      <point x="1294" y="0" type="line" smooth="no"/>
      <point x="1033" y="0" type="line" smooth="no"/>
      <point x="643" y="612" type="line" smooth="no"/>
      <point x="245" y="0" type="line" smooth="no"/>
    </contour>
  </outline>
</glyph>
<glyph name="Y" format="1">
  <advance width="1227"/>
  <unicode hex="0059"/>
  <outline>
    <contour>
      <point x="495" y="0" type="line" smooth="no"/>
      <point x="495" y="583" type="line" smooth="no"/>
      <point x="-8" y="1471" type="line" smooth="no"/>
      <point x="236" y="1471" type="line" smooth="no"/>
      <point x="611" y="796" type="line" smooth="no"/>
      <point x="992" y="1471" type="line" smooth="no"/>
      <point x="1235" y="1471" type="line" smooth="no"/>
      <point x="722" y="588" type="line" smooth="no"/>
      <point x="722" y="0" type="line" smooth="no"/>
    </contour>
  </outline>
</glyph>
<glyph name="bracketleft" format="1">
  <advance width="662"/>
  <unicode hex="005b"/>
  <outline>
    <contour>
      <point x="139" y="-278" type="line" smooth="no"/>
      <point x="139" y="1496" type="line" smooth="no"/>
      <point x="598" y="1496" type="line" smooth="no"/>
      <point x="598" y="1338" type="line" smooth="no"/>
      <point x="354" y="1338" type="line" smooth="no"/>
      <point x="354" y="-120" type="line" smooth="no"/>
      <point x="598" y="-120" type="line" smooth="no"/>
      <point x="598" y="-278" type="line" smooth="no"/>
    </contour>
  </outline>
</glyph>
<glyph name="asciicircum" format="1">
  <advance width="1155"/>
  <unicode hex="005e"/>
  <outline>
    <contour>
      <point x="51" y="567" type="line" smooth="no"/>
      <point x="506" y="1492" type="line" smooth="no"/>
      <point x="622" y="1492" type="line" smooth="no"/>
      <point x="1104" y="567" type="line" smooth="no"/>
      <point x="926" y="567" type="line" smooth="no"/>
      <point x="565" y="1271" type="line" smooth="no"/>
      <point x="231" y="567" type="line" smooth="no"/>
    </contour>
  </outline>
</glyph>
<glyph name="grave" format="1">
  <advance width="574"/>
  <unicode hex="0060"/>
  <outline>
    <contour>
      <point x="362" y="1221" type="line" smooth="no"/>
      <point x="35" y="1606" type="line" smooth="no"/>
      <point x="315" y="1606" type="line" smooth="no"/>
      <point x="501" y="1221" type="line" smooth="no"/>
    </contour>
  </outline>
</glyph>
<glyph name="c" format="1">
  <advance width="989"/>
  <unicode hex="0063"/>
  <outline>
    <contour>
      <point x="611" y="-22" type="curve" smooth="yes"/>
      <point x="279" y="-22"/>
      <point x="86" y="197"/>
      <point x="86" y="552" type="curve" smooth="no"/>
      <point x="87" y="905"/>
      <point x="295" y="1123"/>
      <point x="614" y="1123" type="curve" smooth="yes"/>
      <point x="739" y="1123"/>
      <point x="850" y="1092"/>
      <point x="924" y="1043" type="curve" smooth="no"/>
      <point x="869" y="883" type="line" smooth="no"/>
      <point x="794" y="922"/>
      <point x="699" y="950"/>
      <point x="619" y="950" type="curve" smooth="yes"/>
      <point x="427" y="950"/>
      <point x="306" y="808"/>
      <point x="306" y="550" type="curve" smooth="yes"/>
      <point x="306" y="296"/>
      <point x="423" y="151"/>
      <point x="621" y="151" type="curve" smooth="yes"/>
      <point x="721" y="151"/>
      <point x="812" y="183"/>
      <point x="892" y="229" type="curve" smooth="no"/>
      <point x="915" y="61" type="line" smooth="no"/>
      <point x="832" y="4"/>
      <point x="736" y="-22"/>
    </contour>
  </outline>
</glyph>
<glyph name="d" format="1">
  <advance width="1237"/>
  <unicode hex="0064"/>
  <outline>
    <contour>
      <point x="589" y="152" type="curve" smooth="yes"/>
      <point x="782" y="152"/>
      <point x="882" y="279"/>
      <point x="883" y="534" type="curve" smooth="no"/>
      <point x="883" y="815"/>
      <point x="790" y="950"/>
      <point x="586" y="950" type="curve" smooth="yes"/>
      <point x="408" y="950"/>
      <point x="306" y="797"/>
      <point x="306" y="551" type="curve" smooth="yes"/>
      <point x="306" y="301"/>
      <point x="406" y="152"/>
    </contour>
    <contour>
      <point x="548" y="-21" type="curve" smooth="yes"/>
      <point x="258" y="-21"/>
      <point x="86" y="206"/>
      <point x="86" y="556" type="curve" smooth="yes"/>
      <point x="86" y="892"/>
      <point x="260" y="1123"/>
      <point x="546" y="1123" type="curve" smooth="yes"/>
      <point x="722" y="1123"/>
      <point x="835" y="1039"/>
      <point x="886" y="953" type="curve" smooth="no"/>
      <point x="883" y="985"/>
      <point x="879" y="1071"/>
      <point x="879" y="1099" type="curve" smooth="yes"/>
      <point x="879" y="1513" type="line" smooth="no"/>
      <point x="1096" y="1527" type="line" smooth="no"/>
      <point x="1096" y="0" type="line" smooth="no"/>
      <point x="909" y="0" type="line" smooth="no"/>
      <point x="883" y="154" type="line" smooth="no"/>
      <point x="826" y="65"/>
      <point x="730" y="-21"/>
    </contour>
  </outline>
</glyph>
<glyph name="e" format="1">
  <advance width="1135"/>
  <unicode hex="0065"/>
  <outline>
    <contour>
      <point x="313" y="653" type="curve" smooth="no"/>
      <point x="839" y="653" type="line" smooth="no"/>
      <point x="839" y="852"/>
      <point x="742" y="959"/>
      <point x="588" y="959" type="curve" smooth="yes"/>
      <point x="441" y="959"/>
      <point x="329" y="853"/>
    </contour>
    <contour>
      <point x="625" y="-22" type="curve" smooth="yes"/>
      <point x="288" y="-22"/>
      <point x="87" y="194"/>
      <point x="87" y="549" type="curve" smooth="yes"/>
      <point x="87" y="893"/>
      <point x="281" y="1121"/>
      <point x="588" y="1123" type="curve" smooth="no"/>
      <point x="881" y="1123"/>
      <point x="1050" y="915"/>
      <point x="1050" y="608" type="curve" smooth="yes"/>
      <point x="1050" y="577"/>
      <point x="1049" y="538"/>
      <point x="1049" y="506" type="curve" smooth="no"/>
      <point x="308" y="506" type="line" smooth="no"/>
      <point x="313" y="279"/>
      <point x="436" y="149"/>
      <point x="634" y="149" type="curve" smooth="yes"/>
      <point x="770" y="149"/>
      <point x="884" y="189"/>
      <point x="981" y="242" type="curve" smooth="no"/>
      <point x="1013" y="80" type="line" smooth="no"/>
      <point x="909" y="17"/>
      <point x="795" y="-22"/>
    </contour>
  </outline>
</glyph>
<glyph name="g" format="1">
  <advance width="1230"/>
  <unicode hex="0067"/>
  <outline>
    <contour>
      <point x="594" y="164" type="curve" smooth="yes"/>
      <point x="813" y="164"/>
      <point x="889" y="328"/>
      <point x="889" y="532" type="curve" smooth="yes"/>
      <point x="889" y="590" type="line" smooth="yes"/>
      <point x="888" y="802"/>
      <point x="799" y="950"/>
      <point x="602" y="950" type="curve" smooth="yes"/>
      <point x="385" y="950"/>
      <point x="293" y="762"/>
      <point x="293" y="558" type="curve" smooth="yes"/>
      <point x="293" y="361"/>
      <point x="392" y="164"/>
    </contour>
    <contour>
      <point x="334" y="-496" type="line" smooth="no"/>
      <point x="319" y="-313" type="line" smooth="no"/>
      <point x="485" y="-313" type="line" smooth="yes"/>
      <point x="807" y="-313"/>
      <point x="885" y="-205"/>
      <point x="885" y="42" type="curve" smooth="yes"/>
      <point x="885" y="64"/>
      <point x="884" y="144"/>
      <point x="882" y="165" type="curve" smooth="no"/>
      <point x="816" y="72"/>
      <point x="735" y="1"/>
      <point x="560" y="1" type="curve" smooth="yes"/>
      <point x="254" y="1"/>
      <point x="73" y="259"/>
      <point x="73" y="554" type="curve" smooth="yes"/>
      <point x="73" y="894"/>
      <point x="263" y="1123"/>
      <point x="558" y="1123" type="curve" smooth="yes"/>
      <point x="713" y="1123"/>
      <point x="815" y="1063"/>
      <point x="889" y="958" type="curve" smooth="no"/>
      <point x="899" y="1098" type="line" smooth="no"/>
      <point x="1100" y="1098" type="line" smooth="no"/>
      <point x="1100" y="78" type="line" smooth="yes"/>
      <point x="1100" y="-251"/>
      <point x="1016" y="-496"/>
      <point x="501" y="-496" type="curve" smooth="yes"/>
    </contour>
  </outline>
</glyph>
<glyph name="k" format="1">
  <advance width="1112"/>
  <unicode hex="006b"/>
  <outline>
    <contour>
      <point x="139" y="0" type="line" smooth="no"/>
      <point x="139" y="1513" type="line" smooth="no"/>
      <point x="356" y="1527" type="line" smooth="no"/>
      <point x="356" y="795" type="line" smooth="no"/>
      <point x="353" y="611" type="line" smooth="no"/>
      <point x="360" y="619"/>
      <point x="385" y="644"/>
      <point x="392" y="652" type="curve" smooth="yes"/>
      <point x="517" y="794"/>
      <point x="681" y="954"/>
      <point x="821" y="1098" type="curve" smooth="no"/>
      <point x="1088" y="1098" type="line" smooth="no"/>
      <point x="634" y="633" type="line" smooth="no"/>
      <point x="1118" y="0" type="line" smooth="no"/>
      <point x="851" y="0" type="line" smooth="no"/>
      <point x="471" y="518" type="line" smooth="no"/>
      <point x="356" y="423" type="line" smooth="no"/>
      <point x="356" y="0" type="line" smooth="no"/>
    </contour>
  </outline>
</glyph>
<glyph name="l" format="1">
  <advance width="653"/>
  <unicode hex="006c"/>
  <outline>
    <contour>
      <point x="481" y="-17" type="curve" smooth="yes"/>
      <point x="220" y="-17"/>
      <point x="140" y="106"/>
      <point x="140" y="402" type="curve" smooth="yes"/>
      <point x="140" y="1513" type="line" smooth="no"/>
      <point x="358" y="1527" type="line" smooth="no"/>
      <point x="358" y="435" type="line" smooth="yes"/>
      <point x="358" y="217"/>
      <point x="382" y="154"/>
      <point x="526" y="154" type="curve" smooth="yes"/>
      <point x="570" y="154"/>
      <point x="605" y="159"/>
      <point x="652" y="166" type="curve" smooth="no"/>
      <point x="661" y="3" type="line" smooth="no"/>
      <point x="617" y="-4"/>
      <point x="537" y="-17"/>
    </contour>
  </outline>
</glyph>
<glyph name="p" format="1">
  <advance width="1230"/>
  <unicode hex="0070"/>
  <outline>
    <contour>
      <point x="646" y="151" type="curve" smooth="yes"/>
      <point x="826" y="151"/>
      <point x="924" y="314"/>
      <point x="924" y="553" type="curve" smooth="yes"/>
      <point x="924" y="799"/>
      <point x="825" y="951"/>
      <point x="643" y="951" type="curve" smooth="yes"/>
      <point x="451" y="951"/>
      <point x="355" y="822"/>
      <point x="354" y="571" type="curve" smooth="no"/>
      <point x="354" y="289"/>
      <point x="444" y="151"/>
    </contour>
    <contour>
      <point x="137" y="-466" type="line" smooth="no"/>
      <point x="137" y="1098" type="line" smooth="no"/>
      <point x="327" y="1098" type="line" smooth="no"/>
      <point x="349" y="946" type="line" smooth="no"/>
      <point x="426" y="1054"/>
      <point x="545" y="1124"/>
      <point x="693" y="1124" type="curve" smooth="yes"/>
      <point x="984" y="1124"/>
      <point x="1145" y="880"/>
      <point x="1145" y="549" type="curve" smooth="yes"/>
      <point x="1145" y="219"/>
      <point x="974" y="-22"/>
      <point x="687" y="-22" type="curve" smooth="yes"/>
      <point x="543" y="-22"/>
      <point x="421" y="45"/>
      <point x="349" y="141" type="curve" smooth="no"/>
      <point x="351" y="98"/>
      <point x="356" y="9"/>
      <point x="356" y="-43" type="curve" smooth="yes"/>
      <point x="356" y="-454" type="line" smooth="no"/>
    </contour>
  </outline>
</glyph>
<glyph name="r" format="1">
  <advance width="774"/>
  <unicode hex="0072"/>
  <outline>
    <contour>
      <point x="141" y="0" type="line" smooth="no"/>
      <point x="141" y="0"/>
      <point x="140" y="1046"/>
      <point x="140" y="1098" type="curve" smooth="no"/>
      <point x="323" y="1098" type="line" smooth="no"/>
      <point x="349" y="917" type="line" smooth="no"/>
      <point x="420" y="1033"/>
      <point x="534" y="1105"/>
      <point x="671" y="1105" type="curve" smooth="yes"/>
      <point x="699" y="1105"/>
      <point x="723" y="1104"/>
      <point x="746" y="1100" type="curve" smooth="no"/>
      <point x="741" y="911" type="line" smooth="no"/>
      <point x="713" y="916"/>
      <point x="686" y="918"/>
      <point x="659" y="918" type="curve" smooth="yes"/>
      <point x="464" y="918"/>
      <point x="359" y="787"/>
      <point x="359" y="605" type="curve" smooth="yes"/>
      <point x="359" y="0" type="line" smooth="no"/>
    </contour>
  </outline>
</glyph>
<glyph name="s" format="1">
  <advance width="970"/>
  <unicode hex="0073"/>
  <outline>
    <contour>
      <point x="477" y="-21" type="curve" smooth="yes"/>
      <point x="315" y="-21"/>
      <point x="186" y="13"/>
      <point x="102" y="63" type="curve" smooth="no"/>
      <point x="126" y="234" type="line" smooth="no"/>
      <point x="204" y="192"/>
      <point x="343" y="143"/>
      <point x="468" y="143" type="curve" smooth="yes"/>
      <point x="599" y="143"/>
      <point x="681" y="190"/>
      <point x="684" y="291" type="curve" smooth="no"/>
      <point x="684" y="380"/>
      <point x="625" y="416"/>
      <point x="448" y="480" type="curve" smooth="yes"/>
      <point x="441" y="483"/>
      <point x="386" y="502"/>
      <point x="379" y="505" type="curve" smooth="yes"/>
      <point x="183" y="576"/>
      <point x="101" y="663"/>
      <point x="101" y="818" type="curve" smooth="yes"/>
      <point x="101" y="1004"/>
      <point x="249" y="1123"/>
      <point x="501" y="1123" type="curve" smooth="yes"/>
      <point x="637" y="1123"/>
      <point x="753" y="1097"/>
      <point x="856" y="1048" type="curve" smooth="no"/>
      <point x="798" y="891" type="line" smooth="no"/>
      <point x="714" y="928"/>
      <point x="608" y="960"/>
      <point x="503" y="960" type="curve" smooth="yes"/>
      <point x="384" y="960"/>
      <point x="310" y="915"/>
      <point x="310" y="829" type="curve" smooth="yes"/>
      <point x="310" y="750"/>
      <point x="364" y="721"/>
      <point x="523" y="665" type="curve" smooth="yes"/>
      <point x="544" y="657"/>
      <point x="567" y="649"/>
      <point x="593" y="640" type="curve" smooth="yes"/>
      <point x="799" y="569"/>
      <point x="891" y="479"/>
      <point x="891" y="311" type="curve" smooth="no"/>
      <point x="889" y="99"/>
      <point x="735" y="-21"/>
    </contour>
  </outline>
</glyph>
<glyph name="v" format="1">
  <advance width="1081"/>
  <unicode hex="0076"/>
  <outline>
    <contour>
      <point x="434" y="0" type="line" smooth="no"/>
      <point x="4" y="1098" type="line" smooth="no"/>
      <point x="233" y="1098" type="line" smooth="no"/>
      <point x="261" y="1020"/>
      <point x="436" y="551"/>
      <point x="462" y="471" type="curve" smooth="no"/>
      <point x="493" y="381"/>
      <point x="542" y="241"/>
      <point x="552" y="208" type="curve" smooth="no"/>
      <point x="568" y="259"/>
      <point x="610" y="408"/>
      <point x="633" y="472" type="curve" smooth="yes"/>
      <point x="664" y="561"/>
      <point x="782" y="913"/>
      <point x="849" y="1098" type="curve" smooth="no"/>
      <point x="1078" y="1098" type="line" smooth="no"/>
      <point x="661" y="0" type="line" smooth="no"/>
    </contour>
  </outline>
</glyph>
<glyph name="w" format="1">
  <advance width="1664"/>
  <unicode hex="0077"/>
  <outline>
    <contour>
      <point x="339" y="0" type="line" smooth="no"/>
      <point x="16" y="1098" type="line" smooth="no"/>
      <point x="239" y="1098" type="line" smooth="no"/>
      <point x="461" y="249" type="line" smooth="no"/>
      <point x="516" y="430"/>
      <point x="663" y="920"/>
      <point x="721" y="1098" type="curve" smooth="no"/>
      <point x="953" y="1098" type="line" smooth="no"/>
      <point x="1009" y="921"/>
      <point x="1150" y="432"/>
      <point x="1203" y="252" type="curve" smooth="no"/>
      <point x="1427" y="1098" type="line" smooth="no"/>
      <point x="1648" y="1098" type="line" smooth="no"/>
      <point x="1317" y="0" type="line" smooth="no"/>
      <point x="1092" y="0" type="line" smooth="no"/>
      <point x="1035" y="182"/>
      <point x="887" y="702"/>
      <point x="832" y="886" type="curve" smooth="no"/>
      <point x="779" y="699"/>
      <point x="621" y="182"/>
      <point x="562" y="0" type="curve" smooth="no"/>
    </contour>
  </outline>
</glyph>
<glyph name="x" format="1">
  <advance width="1111"/>
  <unicode hex="0078"/>
  <outline>
    <contour>
      <point x="26" y="0" type="line" smooth="no"/>
      <point x="422" y="560" type="line" smooth="no"/>
      <point x="43" y="1098" type="line" smooth="no"/>
      <point x="291" y="1098" type="line" smooth="no"/>
      <point x="557" y="704" type="line" smooth="no"/>
      <point x="828" y="1098" type="line" smooth="no"/>
      <point x="1074" y="1098" type="line" smooth="no"/>
      <point x="693" y="560" type="line" smooth="no"/>
      <point x="1085" y="0" type="line" smooth="no"/>
      <point x="838" y="0" type="line" smooth="no"/>
      <point x="558" y="418" type="line" smooth="no"/>
      <point x="273" y="0" type="line" smooth="no"/>
    </contour>
  </outline>
</glyph>
<glyph name="z" format="1">
  <advance width="947"/>
  <unicode hex="007a"/>
  <outline>
    <contour>
      <point x="73" y="0" type="line" smooth="no"/>
      <point x="73" y="144" type="line" smooth="no"/>
      <point x="625" y="939" type="line" smooth="no"/>
      <point x="94" y="939" type="line" smooth="no"/>
      <point x="94" y="1098" type="line" smooth="no"/>
      <point x="868" y="1098" type="line" smooth="no"/>
      <point x="868" y="941" type="line" smooth="no"/>
      <point x="332" y="164" type="line" smooth="no"/>
      <point x="885" y="164" type="line" smooth="no"/>
      <point x="885" y="0" type="line" smooth="no"/>
    </contour>
  </outline>
</glyph>
<glyph name="bar" format="1">
  <advance width="778"/>
  <unicode hex="007c"/>
  <outline>
    <contour>
      <point x="301" y="-389" type="line" smooth="no"/>
      <point x="301" y="1557" type="line" smooth="no"/>
      <point x="477" y="1557" type="line" smooth="no"/>
      <point x="477" y="-389" type="line" smooth="no"/>
    </contour>
  </outline>
</glyph>
<glyph name="braceright" format="1">
  <advance width="764"/>
  <unicode hex="007d"/>
  <outline>
    <contour>
      <point x="90" y="-284" type="curve" smooth="no"/>
      <point x="90" y="-112" type="line" smooth="no"/>
      <point x="235" y="-110"/>
      <point x="269" y="-63"/>
      <point x="269" y="86" type="curve" smooth="yes"/>
      <point x="269" y="355" type="line" smooth="yes"/>
      <point x="269" y="491"/>
      <point x="330" y="556"/>
      <point x="468" y="621" type="curve" smooth="no"/>
      <point x="330" y="664"/>
      <point x="270" y="757"/>
      <point x="269" y="887" type="curve" smooth="no"/>
      <point x="269" y="1154" type="line" smooth="yes"/>
      <point x="269" y="1300"/>
      <point x="237" y="1351"/>
      <point x="90" y="1353" type="curve" smooth="no"/>
      <point x="90" y="1524" type="line" smooth="no"/>
      <point x="359" y="1524"/>
      <point x="481" y="1439"/>
      <point x="481" y="1204" type="curve" smooth="yes"/>
      <point x="481" y="956" type="line" smooth="yes"/>
      <point x="481" y="793"/>
      <point x="514" y="712"/>
      <point x="702" y="711" type="curve" smooth="no"/>
      <point x="702" y="529" type="line" smooth="no"/>
      <point x="520" y="529"/>
      <point x="481" y="446"/>
      <point x="481" y="280" type="curve" smooth="yes"/>
      <point x="481" y="14" type="line" smooth="yes"/>
      <point x="481" y="-204"/>
      <point x="353" y="-284"/>
    </contour>
  </outline>
</glyph>
<glyph name="asciitilde" format="1">
  <advance width="1278"/>
  <unicode hex="007e"/>
  <outline>
    <contour>
      <point x="191" y="486" type="curve" smooth="no"/>
      <point x="125" y="612" type="line" smooth="no"/>
      <point x="175" y="721"/>
      <point x="262" y="808"/>
      <point x="405" y="808" type="curve" smooth="yes"/>
      <point x="490" y="808"/>
      <point x="568" y="783"/>
      <point x="661" y="742" type="curve" smooth="yes"/>
      <point x="753" y="702"/>
      <point x="827" y="671"/>
      <point x="888" y="671" type="curve" smooth="yes"/>
      <point x="969" y="671"/>
      <point x="1042" y="725"/>
      <point x="1109" y="816" type="curve" smooth="no"/>
      <point x="1173" y="699" type="line" smooth="no"/>
      <point x="1122" y="590"/>
      <point x="1013" y="500"/>
      <point x="876" y="500" type="curve" smooth="yes"/>
      <point x="790" y="500"/>
      <point x="717" y="529"/>
      <point x="625" y="570" type="curve" smooth="no"/>
      <point x="538" y="610"/>
      <point x="472" y="640"/>
      <point x="398" y="640" type="curve" smooth="yes"/>
      <point x="306" y="640"/>
      <point x="234" y="567"/>
    </contour>
  </outline>
</glyph>
<glyph name="yen" format="1">
  <advance width="1166"/>
  <unicode hex="00a5"/>
  <outline>
    <contour>
      <point x="478" y="0" type="line" smooth="no"/>
      <point x="478" y="294" type="line" smooth="no"/>
      <point x="129" y="294" type="line" smooth="no"/>
      <point x="129" y="433" type="line" smooth="no"/>
      <point x="478" y="433" type="line" smooth="no"/>
      <point x="478" y="593" type="line" smooth="no"/>
      <point x="129" y="593" type="line" smooth="no"/>
      <point x="129" y="732" type="line" smooth="no"/>
      <point x="414" y="732" type="line" smooth="no"/>
      <point x="-12" y="1468" type="line" smooth="no"/>
      <point x="223" y="1468" type="line" smooth="no"/>
      <point x="584" y="823" type="line" smooth="no"/>
      <point x="948" y="1468" type="line" smooth="no"/>
      <point x="1177" y="1468" type="line" smooth="no"/>
      <point x="752" y="732" type="line" smooth="no"/>
      <point x="1041" y="732" type="line" smooth="no"/>
      <point x="1041" y="593" type="line" smooth="no"/>
      <point x="693" y="593" type="line" smooth="no"/>
      <point x="693" y="433" type="line" smooth="no"/>
      <point x="1042" y="433" type="line" smooth="no"/>
      <point x="1042" y="294" type="line" smooth="no"/>
      <point x="693" y="294" type="line" smooth="no"/>
      <point x="693" y="0" type="line" smooth="no"/>
    </contour>
  </outline>
</glyph>
<glyph name="section" format="1">
  <advance width="1026"/>
  <unicode hex="00a7"/>
  <outline>
    <contour>
      <point x="596" y="584" type="curve" smooth="no"/>
      <point x="666" y="628"/>
      <point x="714" y="682"/>
      <point x="714" y="748" type="curve" smooth="yes"/>
      <point x="714" y="854"/>
      <point x="596" y="907"/>
      <point x="441" y="965" type="curve" smooth="no"/>
      <point x="373" y="934"/>
      <point x="321" y="877"/>
      <point x="321" y="807" type="curve" smooth="yes"/>
      <point x="321" y="720"/>
      <point x="396" y="667"/>
      <point x="537" y="609" type="curve" smooth="yes"/>
      <point x="545" y="605"/>
      <point x="588" y="587"/>
    </contour>
    <contour>
      <point x="460" y="-30" type="curve" smooth="yes"/>
      <point x="337" y="-30"/>
      <point x="228" y="-9"/>
      <point x="141" y="34" type="curve" smooth="no"/>
      <point x="141" y="208" type="line" smooth="no"/>
      <point x="233" y="163"/>
      <point x="359" y="131"/>
      <point x="456" y="131" type="curve" smooth="yes"/>
      <point x="594" y="131"/>
      <point x="678" y="178"/>
      <point x="684" y="258" type="curve" smooth="no"/>
      <point x="695" y="339"/>
      <point x="633" y="378"/>
      <point x="467" y="447" type="curve" smooth="no"/>
      <point x="254" y="531"/>
      <point x="137" y="616"/>
      <point x="137" y="786" type="curve" smooth="yes"/>
      <point x="137" y="901"/>
      <point x="202" y="990"/>
      <point x="290" y="1041" type="curve" smooth="no"/>
      <point x="205" y="1098"/>
      <point x="155" y="1170"/>
      <point x="155" y="1282" type="curve" smooth="yes"/>
      <point x="155" y="1461"/>
      <point x="296" y="1557"/>
      <point x="516" y="1565" type="curve" smooth="no"/>
      <point x="639" y="1573"/>
      <point x="745" y="1553"/>
      <point x="855" y="1510" type="curve" smooth="no"/>
      <point x="850" y="1481"/>
      <point x="829" y="1373"/>
      <point x="824" y="1344" type="curve" smooth="no"/>
      <point x="737" y="1383"/>
      <point x="644" y="1405"/>
      <point x="551" y="1405" type="curve" smooth="yes"/>
      <point x="428" y="1405"/>
      <point x="351" y="1371"/>
      <point x="351" y="1286" type="curve" smooth="yes"/>
      <point x="351" y="1210"/>
      <point x="414" y="1166"/>
      <point x="578" y="1100" type="curve" smooth="yes"/>
      <point x="774" y="1020"/>
      <point x="898" y="932"/>
      <point x="898" y="777" type="curve" smooth="yes"/>
      <point x="898" y="659"/>
      <point x="835" y="568"/>
      <point x="750" y="511" type="curve" smooth="no"/>
      <point x="835" y="459"/>
      <point x="887" y="389"/>
      <point x="887" y="281" type="curve" smooth="yes"/>
      <point x="887" y="77"/>
      <point x="709" y="-30"/>
    </contour>
  </outline>
</glyph>
<glyph name="copyright" format="1">
  <advance width="1788"/>
  <unicode hex="00a9"/>
  <outline>
    <contour>
      <point x="883" y="-24" type="curve" smooth="yes"/>
      <point x="476" y="-24"/>
      <point x="102" y="269"/>
      <point x="102" y="760" type="curve" smooth="yes"/>
      <point x="102" y="1248"/>
      <point x="473" y="1542"/>
      <point x="880" y="1542" type="curve" smooth="yes"/>
      <point x="1299" y="1542"/>
      <point x="1673" y="1247"/>
      <point x="1673" y="760" type="curve" smooth="yes"/>
      <point x="1673" y="269"/>
      <point x="1302" y="-24"/>
    </contour>
    <contour>
      <point x="883" y="73" type="curve" smooth="yes"/>
      <point x="1300" y="73"/>
      <point x="1558" y="381"/>
      <point x="1558" y="758" type="curve" smooth="yes"/>
      <point x="1558" y="1134"/>
      <point x="1298" y="1445"/>
      <point x="880" y="1445" type="curve" smooth="yes"/>
      <point x="476" y="1445"/>
      <point x="216" y="1135"/>
      <point x="216" y="761" type="curve" smooth="yes"/>
      <point x="216" y="382"/>
      <point x="477" y="73"/>
    </contour>
    <contour>
      <point x="879" y="262" type="curve" smooth="yes"/>
      <point x="609" y="262"/>
      <point x="411" y="473"/>
      <point x="411" y="762" type="curve" smooth="yes"/>
      <point x="411" y="1047"/>
      <point x="601" y="1267"/>
      <point x="883" y="1267" type="curve" smooth="yes"/>
      <point x="1004" y="1267"/>
      <point x="1109" y="1237"/>
      <point x="1191" y="1181" type="curve" smooth="no"/>
      <point x="1137" y="1080" type="line" smooth="no"/>
      <point x="1068" y="1124"/>
      <point x="970" y="1147"/>
      <point x="885" y="1147" type="curve" smooth="yes"/>
      <point x="670" y="1147"/>
      <point x="552" y="980"/>
      <point x="552" y="764" type="curve" smooth="yes"/>
      <point x="552" y="541"/>
      <point x="674" y="380"/>
      <point x="897" y="380" type="curve" smooth="yes"/>
      <point x="981" y="380"/>
      <point x="1086" y="408"/>
      <point x="1151" y="449" type="curve" smooth="no"/>
      <point x="1193" y="343" type="line" smooth="no"/>
      <point x="1118" y="294"/>
      <point x="1002" y="262"/>
    </contour>
  </outline>
</glyph>
<glyph name="guillemotleft" format="1">
  <advance width="1044"/>
  <unicode hex="00ab"/>
  <outline>
    <contour>
      <point x="793" y="142" type="line" smooth="no"/>
      <point x="479" y="562" type="line" smooth="no"/>
      <point x="795" y="979" type="line" smooth="no"/>
      <point x="962" y="935" type="line" smooth="no"/>
      <point x="695" y="561" type="line" smooth="no"/>
      <point x="959" y="188" type="line" smooth="no"/>
    </contour>
    <contour>
      <point x="389" y="142" type="line" smooth="no"/>
      <point x="95" y="534" type="line" smooth="no"/>
      <point x="92" y="579" type="line" smooth="no"/>
      <point x="392" y="979" type="line" smooth="no"/>
      <point x="569" y="935" type="line" smooth="no"/>
      <point x="292" y="561" type="line" smooth="no"/>
      <point x="564" y="188" type="line" smooth="no"/>
    </contour>
  </outline>
</glyph>
<glyph name="logicalnot" format="1">
  <advance width="1258"/>
  <unicode hex="00ac"/>
  <outline>
    <contour>
      <point x="963" y="253" type="line" smooth="no"/>
      <point x="963" y="660" type="line" smooth="no"/>
      <point x="121" y="660" type="line" smooth="no"/>
      <point x="121" y="830" type="line" smooth="no"/>
      <point x="1128" y="830" type="line" smooth="no"/>
      <point x="1128" y="253" type="line" smooth="no"/>
    </contour>
  </outline>
</glyph>
<glyph name="registered" format="1">
  <advance width="1776"/>
  <unicode hex="00ae"/>
  <outline>
    <contour>
      <point x="882" y="-24" type="curve" smooth="yes"/>
      <point x="476" y="-24"/>
      <point x="102" y="269"/>
      <point x="102" y="760" type="curve" smooth="yes"/>
      <point x="102" y="1248"/>
      <point x="473" y="1542"/>
      <point x="879" y="1542" type="curve" smooth="yes"/>
      <point x="1298" y="1542"/>
      <point x="1671" y="1247"/>
      <point x="1671" y="760" type="curve" smooth="yes"/>
      <point x="1671" y="269"/>
      <point x="1301" y="-24"/>
    </contour>
    <contour>
      <point x="882" y="73" type="curve" smooth="yes"/>
      <point x="1298" y="73"/>
      <point x="1556" y="381"/>
      <point x="1556" y="758" type="curve" smooth="yes"/>
      <point x="1556" y="1134"/>
      <point x="1297" y="1445"/>
      <point x="879" y="1445" type="curve" smooth="yes"/>
      <point x="476" y="1445"/>
      <point x="216" y="1135"/>
      <point x="216" y="761" type="curve" smooth="yes"/>
      <point x="216" y="382"/>
      <point x="476" y="73"/>
    </contour>
    <contour>
      <point x="716" y="827" type="line" smooth="no"/>
      <point x="839" y="827" type="line" smooth="yes"/>
      <point x="1004" y="827"/>
      <point x="1099" y="851"/>
      <point x="1099" y="979" type="curve" smooth="yes"/>
      <point x="1099" y="1111"/>
      <point x="1014" y="1122"/>
      <point x="829" y="1122" type="curve" smooth="yes"/>
      <point x="716" y="1122" type="line" smooth="no"/>
    </contour>
    <contour>
      <point x="576" y="285" type="line" smooth="no"/>
      <point x="576" y="1250" type="line" smooth="no"/>
      <point x="857" y="1250" type="line" smooth="yes"/>
      <point x="1113" y="1250"/>
      <point x="1254" y="1167"/>
      <point x="1254" y="984" type="curve" smooth="yes"/>
      <point x="1254" y="846"/>
      <point x="1194" y="748"/>
      <point x="1018" y="719" type="curve" smooth="no"/>
      <point x="1093" y="646"/>
      <point x="1172" y="479"/>
      <point x="1284" y="285" type="curve" smooth="no"/>
      <point x="1127" y="285" type="line" smooth="no"/>
      <point x="1121" y="296"/>
      <point x="1024" y="472"/>
      <point x="1004" y="511" type="curve" smooth="yes"/>
      <point x="953" y="606"/>
      <point x="913" y="679"/>
      <point x="883" y="701" type="curve" smooth="no"/>
      <point x="716" y="701" type="line" smooth="no"/>
      <point x="716" y="285" type="line" smooth="no"/>
    </contour>
  </outline>
</glyph>
<glyph name="macron" format="1">
  <advance width="981"/>
  <unicode hex="00af"/>
  <outline>
    <contour>
      <point x="145" y="1435" type="line" smooth="no"/>
      <point x="145" y="1574" type="line" smooth="no"/>
      <point x="842" y="1574" type="line" smooth="no"/>
      <point x="842" y="1435" type="line" smooth="no"/>
    </contour>
  </outline>
</glyph>
<glyph name="degree" format="1">
  <advance width="848"/>
  <unicode hex="00b0"/>
  <outline>
    <contour>
      <point x="425" y="879" type="curve" smooth="yes"/>
      <point x="238" y="879"/>
      <point x="112" y="1023"/>
      <point x="112" y="1184" type="curve" smooth="yes"/>
      <point x="112" y="1347"/>
      <point x="239" y="1484"/>
      <point x="425" y="1484" type="curve" smooth="yes"/>
      <point x="611" y="1484"/>
      <point x="739" y="1347"/>
      <point x="739" y="1184" type="curve" smooth="yes"/>
      <point x="739" y="1026"/>
      <point x="615" y="879"/>
    </contour>
    <contour>
      <point x="426" y="1004" type="curve" smooth="yes"/>
      <point x="519" y="1004"/>
      <point x="601" y="1077"/>
      <point x="601" y="1183" type="curve" smooth="yes"/>
      <point x="601" y="1289"/>
      <point x="519" y="1359"/>
      <point x="426" y="1359" type="curve" smooth="yes"/>
      <point x="334" y="1359"/>
      <point x="250" y="1288"/>
      <point x="250" y="1183" type="curve" smooth="yes"/>
      <point x="250" y="1077"/>
      <point x="333" y="1004"/>
    </contour>
  </outline>
</glyph>
<glyph name="uni00B9" format="1">
  <advance width="677"/>
  <unicode hex="00b9"/>
  <outline>
    <contour>
      <point x="143" y="623" type="line" smooth="no"/>
      <point x="143" y="748" type="line" smooth="no"/>
      <point x="274" y="748" type="line" smooth="no"/>
      <point x="274" y="1352" type="line" smooth="no"/>
      <point x="252" y="1338"/>
      <point x="153" y="1291"/>
      <point x="127" y="1277" type="curve" smooth="no"/>
      <point x="127" y="1404" type="line" smooth="no"/>
      <point x="164" y="1422"/>
      <point x="284" y="1486"/>
      <point x="308" y="1510" type="curve" smooth="no"/>
      <point x="430" y="1509" type="line" smooth="no"/>
      <point x="430" y="748" type="line" smooth="no"/>
      <point x="563" y="748" type="line" smooth="no"/>
      <point x="563" y="623" type="line" smooth="no"/>
    </contour>
  </outline>
</glyph>
<glyph name="guillemotright" format="1">
  <advance width="1096"/>
  <unicode hex="00bb"/>
  <outline>
    <contour>
      <point x="690" y="142" type="line" smooth="no"/>
      <point x="517" y="188" type="line" smooth="no"/>
      <point x="790" y="562" type="line" smooth="no"/>
      <point x="521" y="935" type="line" smooth="no"/>
      <point x="694" y="979" type="line" smooth="no"/>
      <point x="999" y="560" type="line" smooth="no"/>
    </contour>
    <contour>
      <point x="275" y="142" type="line" smooth="no"/>
      <point x="108" y="188" type="line" smooth="no"/>
      <point x="375" y="562" type="line" smooth="no"/>
      <point x="110" y="935" type="line" smooth="no"/>
      <point x="277" y="979" type="line" smooth="no"/>
      <point x="591" y="560" type="line" smooth="no"/>
    </contour>
  </outline>
</glyph>
<glyph name="onequarter" format="1">
  <advance width="1674"/>
  <unicode hex="00bc"/>
  <outline>
    <contour>
      <point x="1125" y="336" type="line" smooth="no"/>
      <point x="1352" y="336" type="line" smooth="no"/>
      <point x="1352" y="336"/>
      <point x="1352" y="661"/>
      <point x="1353" y="678" type="curve" smooth="no"/>
    </contour>
    <contour>
      <point x="277" y="0" type="line" smooth="no"/>
      <point x="1252" y="1506" type="line" smooth="no"/>
      <point x="1419" y="1506" type="line" smooth="no"/>
      <point x="447" y="0" type="line" smooth="no"/>
    </contour>
    <contour>
      <point x="1353" y="24" type="line" smooth="no"/>
      <point x="1353" y="209" type="line" smooth="no"/>
      <point x="956" y="209" type="line" smooth="no"/>
      <point x="956" y="331" type="line" smooth="no"/>
      <point x="1340" y="881" type="line" smooth="no"/>
      <point x="1489" y="881" type="line" smooth="no"/>
      <point x="1489" y="336" type="line" smooth="no"/>
      <point x="1594" y="336" type="line" smooth="no"/>
      <point x="1600" y="209" type="line" smooth="no"/>
      <point x="1488" y="209" type="line" smooth="no"/>
      <point x="1487" y="24" type="line" smooth="no"/>
    </contour>
    <contour>
      <point x="118" y="623" type="line" smooth="no"/>
      <point x="118" y="748" type="line" smooth="no"/>
      <point x="249" y="748" type="line" smooth="no"/>
      <point x="249" y="1352" type="line" smooth="no"/>
      <point x="227" y="1338"/>
      <point x="128" y="1291"/>
      <point x="102" y="1277" type="curve" smooth="no"/>
      <point x="102" y="1404" type="line" smooth="no"/>
      <point x="139" y="1422"/>
      <point x="259" y="1486"/>
      <point x="283" y="1510" type="curve" smooth="no"/>
      <point x="405" y="1509" type="line" smooth="no"/>
      <point x="405" y="748" type="line" smooth="no"/>
      <point x="538" y="748" type="line" smooth="no"/>
      <point x="538" y="623" type="line" smooth="no"/>
    </contour>
  </outline>
</glyph>
<glyph name="onehalf" format="1">
  <advance width="1706"/>
  <unicode hex="00bd"/>
  <outline>
    <contour>
      <point x="280" y="0" type="line" smooth="no"/>
      <point x="1254" y="1506" type="line" smooth="no"/>
      <point x="1423" y="1506" type="line" smooth="no"/>
      <point x="449" y="0" type="line" smooth="no"/>
    </contour>
    <contour>
      <point x="1043" y="-30" type="line" smooth="no"/>
      <point x="1043" y="87" type="line" smooth="no"/>
      <point x="1264" y="292"/>
      <point x="1462" y="448"/>
      <point x="1462" y="583" type="curve" smooth="yes"/>
      <point x="1462" y="670"/>
      <point x="1393" y="719"/>
      <point x="1324" y="719" type="curve" smooth="yes"/>
      <point x="1252" y="719"/>
      <point x="1167" y="685"/>
      <point x="1112" y="609" type="curve" smooth="no"/>
      <point x="1042" y="701" type="line" smooth="no"/>
      <point x="1095" y="800"/>
      <point x="1213" y="850"/>
      <point x="1338" y="850" type="curve" smooth="yes"/>
      <point x="1480" y="850"/>
      <point x="1612" y="762"/>
      <point x="1612" y="592" type="curve" smooth="yes"/>
      <point x="1612" y="399"/>
      <point x="1449" y="266"/>
      <point x="1244" y="88" type="curve" smooth="no"/>
      <point x="1606" y="88" type="line" smooth="no"/>
      <point x="1598" y="-30" type="line" smooth="no"/>
    </contour>
    <contour>
      <point x="130" y="623" type="line" smooth="no"/>
      <point x="130" y="739" type="line" smooth="no"/>
      <point x="261" y="739" type="line" smooth="no"/>
      <point x="261" y="1362" type="line" smooth="no"/>
      <point x="238" y="1347"/>
      <point x="140" y="1291"/>
      <point x="114" y="1277" type="curve" smooth="no"/>
      <point x="114" y="1404" type="line" smooth="no"/>
      <point x="150" y="1422"/>
      <point x="256" y="1486"/>
      <point x="280" y="1510" type="curve" smooth="no"/>
      <point x="416" y="1509" type="line" smooth="no"/>
      <point x="416" y="739" type="line" smooth="no"/>
      <point x="549" y="739" type="line" smooth="no"/>
      <point x="549" y="623" type="line" smooth="no"/>
    </contour>
  </outline>
</glyph>
<glyph name="AE" format="1">
  <advance width="2054"/>
  <unicode hex="00c6"/>
  <outline>
    <contour>
      <point x="612" y="580" type="line" smooth="no"/>
      <point x="1088" y="580" type="line" smooth="no"/>
      <point x="1033" y="1315" type="line" smooth="no"/>
    </contour>
    <contour>
      <point x="60" y="0" type="line" smooth="no"/>
      <point x="937" y="1521" type="line" smooth="no"/>
      <point x="1917" y="1521" type="line" smooth="no"/>
      <point x="1908" y="1342" type="line" smooth="no"/>
      <point x="1256" y="1342" type="line" smooth="no"/>
      <point x="1292" y="865" type="line" smooth="no"/>
      <point x="1879" y="865" type="line" smooth="no"/>
      <point x="1879" y="687" type="line" smooth="no"/>
      <point x="1312" y="687" type="line" smooth="no"/>
      <point x="1352" y="178" type="line" smooth="no"/>
      <point x="1944" y="178" type="line" smooth="no"/>
      <point x="1937" y="0" type="line" smooth="no"/>
      <point x="1138" y="0" type="line" smooth="no"/>
      <point x="1107" y="399" type="line" smooth="no"/>
      <point x="523" y="399" type="line" smooth="no"/>
      <point x="302" y="0" type="line" smooth="no"/>
    </contour>
  </outline>
</glyph>
<glyph name="Oslash" format="1">
  <advance width="1625"/>
  <unicode hex="00d8"/>
  <outline>
    <contour>
      <point x="814" y="162" type="curve" smooth="yes"/>
      <point x="1141" y="162"/>
      <point x="1300" y="388"/>
      <point x="1300" y="732" type="curve" smooth="yes"/>
      <point x="1300" y="959"/>
      <point x="1232" y="1133"/>
      <point x="1098" y="1228" type="curve" smooth="no"/>
      <point x="657" y="183" type="line" smooth="no"/>
      <point x="705" y="170"/>
      <point x="757" y="162"/>
    </contour>
    <contour>
      <point x="547" y="232" type="curve" smooth="no"/>
      <point x="986" y="1283" type="line" smooth="no"/>
      <point x="935" y="1300"/>
      <point x="878" y="1309"/>
      <point x="815" y="1309" type="curve" smooth="yes"/>
      <point x="492" y="1309"/>
      <point x="328" y="1084"/>
      <point x="328" y="732" type="curve" smooth="yes"/>
      <point x="328" y="502"/>
      <point x="401" y="324"/>
    </contour>
    <contour>
      <point x="485" y="-221" type="line" smooth="no"/>
      <point x="373" y="-178" type="line" smooth="no"/>
      <point x="469" y="51" type="line" smooth="no"/>
      <point x="233" y="165"/>
      <point x="97" y="407"/>
      <point x="97" y="735" type="curve" smooth="yes"/>
      <point x="97" y="1206"/>
      <point x="377" y="1494"/>
      <point x="815" y="1494" type="curve" smooth="yes"/>
      <point x="904" y="1494"/>
      <point x="986" y="1482"/>
      <point x="1061" y="1459" type="curve" smooth="no"/>
      <point x="1152" y="1675" type="line" smooth="no"/>
      <point x="1270" y="1632" type="line" smooth="no"/>
      <point x="1177" y="1411" type="line" smooth="no"/>
      <point x="1399" y="1294"/>
      <point x="1530" y="1056"/>
      <point x="1530" y="734" type="curve" smooth="yes"/>
      <point x="1530" y="275"/>
      <point x="1252" y="-21"/>
      <point x="813" y="-21" type="curve" smooth="yes"/>
      <point x="730" y="-21"/>
      <point x="653" y="-11"/>
      <point x="582" y="9" type="curve" smooth="no"/>
    </contour>
  </outline>
</glyph>
<glyph name="divide" format="1">
  <advance width="1343"/>
  <unicode hex="00f7"/>
  <outline>
    <contour>
      <point x="544" y="904" type="line" smooth="no"/>
      <point x="544" y="1149" type="line" smooth="no"/>
      <point x="801" y="1149" type="line" smooth="no"/>
      <point x="801" y="904" type="line" smooth="no"/>
    </contour>
    <contour>
      <point x="141" y="505" type="line" smooth="no"/>
      <point x="141" y="674" type="line" smooth="no"/>
      <point x="1193" y="674" type="line" smooth="no"/>
      <point x="1193" y="505" type="line" smooth="no"/>
    </contour>
    <contour>
      <point x="544" y="22" type="line" smooth="no"/>
      <point x="544" y="266" type="line" smooth="no"/>
      <point x="781" y="266" type="line" smooth="no"/>
      <point x="781" y="22" type="line" smooth="no"/>
    </contour>
  </outline>
</glyph>
<glyph name="oslash" format="1">
  <advance width="1196"/>
  <unicode hex="00f8"/>
  <outline>
    <contour>
      <point x="601" y="141" type="curve" smooth="yes"/>
      <point x="804" y="141"/>
      <point x="904" y="301"/>
      <point x="904" y="550" type="curve" smooth="yes"/>
      <point x="904" y="701"/>
      <point x="868" y="819"/>
      <point x="794" y="888" type="curve" smooth="no"/>
      <point x="473" y="167" type="line" smooth="no"/>
      <point x="510" y="150"/>
      <point x="553" y="141"/>
    </contour>
    <contour>
      <point x="408" y="211" type="curve" smooth="no"/>
      <point x="728" y="932" type="line" smooth="no"/>
      <point x="691" y="950"/>
      <point x="649" y="959"/>
      <point x="599" y="959" type="curve" smooth="yes"/>
      <point x="398" y="959"/>
      <point x="294" y="799"/>
      <point x="294" y="548" type="curve" smooth="yes"/>
      <point x="294" y="399"/>
      <point x="332" y="281"/>
    </contour>
    <contour>
      <point x="298" y="-224" type="line" smooth="no"/>
      <point x="232" y="-188" type="line" smooth="no"/>
      <point x="334" y="44" type="line" smooth="no"/>
      <point x="170" y="136"/>
      <point x="81" y="321"/>
      <point x="81" y="549" type="curve" smooth="yes"/>
      <point x="81" y="886"/>
      <point x="267" y="1119"/>
      <point x="603" y="1119" type="curve" smooth="yes"/>
      <point x="675" y="1119"/>
      <point x="740" y="1108"/>
      <point x="798" y="1088" type="curve" smooth="no"/>
      <point x="898" y="1296" type="line" smooth="no"/>
      <point x="971" y="1269" type="line" smooth="no"/>
      <point x="869" y="1055" type="line" smooth="no"/>
      <point x="1031" y="964"/>
      <point x="1117" y="780"/>
      <point x="1117" y="551" type="curve" smooth="yes"/>
      <point x="1117" y="218"/>
      <point x="932" y="-19"/>
      <point x="596" y="-19" type="curve" smooth="yes"/>
      <point x="525" y="-19"/>
      <point x="460" y="-8"/>
      <point x="403" y="13" type="curve" smooth="no"/>
    </contour>
  </outline>
</glyph>
<glyph name="gcommaaccent" format="1">
  <advance width="1231"/>
  <unicode hex="0123"/>
  <outline>
    <component base="g"/>
    <contour>
      <point x="465" y="1230" type="line" smooth="no"/>
      <point x="630" y="1739" type="line" smooth="no"/>
      <point x="783" y="1739" type="line" smooth="no"/>
      <point x="674" y="1230" type="line" smooth="no"/>
    </contour>
  </outline>
</glyph>
<glyph name="hbar" format="1">
  <advance width="1153"/>
  <unicode hex="0127"/>
  <outline>
    <contour>
      <point x="110" y="0" type="line" smooth="no"/>
      <point x="110" y="1246" type="line" smooth="no"/>
      <point x="13" y="1246" type="line" smooth="no"/>
      <point x="13" y="1372" type="line" smooth="no"/>
      <point x="110" y="1372" type="line" smooth="no"/>
      <point x="110" y="1493" type="line" smooth="no"/>
      <point x="324" y="1512" type="line" smooth="no"/>
      <point x="324" y="1372" type="line" smooth="no"/>
      <point x="612" y="1372" type="line" smooth="no"/>
      <point x="612" y="1246" type="line" smooth="no"/>
      <point x="324" y="1246" type="line" smooth="no"/>
      <point x="324" y="962" type="line" smooth="no"/>
      <point x="417" y="1065"/>
      <point x="543" y="1122"/>
      <point x="699" y="1122" type="curve" smooth="yes"/>
      <point x="919" y="1122"/>
      <point x="1054" y="978"/>
      <point x="1054" y="666" type="curve" smooth="yes"/>
      <point x="1054" y="0" type="line" smooth="no"/>
      <point x="839" y="0" type="line" smooth="no"/>
      <point x="839" y="637" type="line" smooth="yes"/>
      <point x="839" y="850"/>
      <point x="807" y="951"/>
      <point x="641" y="951" type="curve" smooth="yes"/>
      <point x="490" y="951"/>
      <point x="363" y="846"/>
      <point x="324" y="746" type="curve" smooth="no"/>
      <point x="324" y="0" type="line" smooth="no"/>
    </contour>
  </outline>
</glyph>
<glyph name="dotlessi" format="1">
  <advance width="493"/>
  <unicode hex="0131"/>
  <outline>
    <contour>
      <point x="132" y="0" type="line" smooth="no"/>
      <point x="132" y="1098" type="line" smooth="no"/>
      <point x="347" y="1098" type="line" smooth="no"/>
      <point x="347" y="0" type="line" smooth="no"/>
    </contour>
  </outline>
</glyph>
<glyph name="kgreenlandic" format="1">
  <advance width="1114"/>
  <unicode hex="0138"/>
  <outline>
    <contour>
      <point x="130" y="0" type="line" smooth="no"/>
      <point x="130" y="1102" type="line" smooth="no"/>
      <point x="331" y="1102" type="line" smooth="no"/>
      <point x="331" y="618" type="line" smooth="no"/>
      <point x="785" y="1102" type="line" smooth="no"/>
      <point x="1048" y="1102" type="line" smooth="no"/>
      <point x="560" y="575" type="line" smooth="no"/>
      <point x="677" y="466"/>
      <point x="988" y="109"/>
      <point x="1088" y="0" type="curve" smooth="no"/>
      <point x="830" y="0" type="line" smooth="no"/>
      <point x="378" y="488" type="line" smooth="no"/>
      <point x="331" y="480" type="line" smooth="no"/>
      <point x="331" y="0" type="line" smooth="no"/>
    </contour>
  </outline>
</glyph>
<glyph name="oe" format="1">
  <advance width="1897"/>
  <unicode hex="0153"/>
  <outline>
    <contour>
      <point x="1107" y="640" type="curve" smooth="no"/>
      <point x="1627" y="640" type="line" smooth="no"/>
      <point x="1627" y="652" type="line" smooth="no"/>
      <point x="1624" y="860"/>
      <point x="1535" y="963"/>
      <point x="1383" y="963" type="curve" smooth="yes"/>
      <point x="1245" y="963"/>
      <point x="1124" y="860"/>
    </contour>
    <contour>
      <point x="592" y="136" type="curve" smooth="yes"/>
      <point x="793" y="136"/>
      <point x="896" y="314"/>
      <point x="896" y="549" type="curve" smooth="yes"/>
      <point x="896" y="794"/>
      <point x="798" y="962"/>
      <point x="591" y="962" type="curve" smooth="yes"/>
      <point x="389" y="962"/>
      <point x="288" y="784"/>
      <point x="288" y="548" type="curve" smooth="yes"/>
      <point x="288" y="316"/>
      <point x="390" y="136"/>
    </contour>
    <contour>
      <point x="591" y="-23" type="curve" smooth="yes"/>
      <point x="245" y="-23"/>
      <point x="75" y="236"/>
      <point x="75" y="549" type="curve" smooth="yes"/>
      <point x="75" y="868"/>
      <point x="247" y="1122"/>
      <point x="593" y="1122" type="curve" smooth="yes"/>
      <point x="787" y="1122"/>
      <point x="922" y="1038"/>
      <point x="998" y="910" type="curve" smooth="no"/>
      <point x="1075" y="1042"/>
      <point x="1219" y="1119"/>
      <point x="1396" y="1122" type="curve" smooth="no"/>
      <point x="1691" y="1122"/>
      <point x="1827" y="901"/>
      <point x="1827" y="590" type="curve" smooth="yes"/>
      <point x="1827" y="569"/>
      <point x="1825" y="520"/>
      <point x="1825" y="509" type="curve" smooth="no"/>
      <point x="1102" y="509" type="line" smooth="no"/>
      <point x="1104" y="278"/>
      <point x="1231" y="140"/>
      <point x="1423" y="140" type="curve" smooth="yes"/>
      <point x="1570" y="140"/>
      <point x="1669" y="194"/>
      <point x="1742" y="246" type="curve" smooth="no"/>
      <point x="1805" y="106" type="line" smooth="no"/>
      <point x="1713" y="32"/>
      <point x="1596" y="-23"/>
      <point x="1417" y="-23" type="curve" smooth="yes"/>
      <point x="1217" y="-23"/>
      <point x="1073" y="55"/>
      <point x="994" y="192" type="curve" smooth="no"/>
      <point x="920" y="65"/>
      <point x="782" y="-23"/>
    </contour>
  </outline>
</glyph>
<glyph name="circumflex" format="1">
  <advance width="786"/>
  <unicode hex="02c6"/>
  <outline>
    <contour>
      <point x="75" y="1203" type="line" smooth="no"/>
      <point x="296" y="1589" type="line" smooth="no"/>
      <point x="506" y="1589" type="line" smooth="no"/>
      <point x="728" y="1203" type="line" smooth="no"/>
      <point x="567" y="1203" type="line" smooth="no"/>
      <point x="399" y="1447" type="line" smooth="no"/>
      <point x="232" y="1203" type="line" smooth="no"/>
    </contour>
  </outline>
</glyph>
<glyph name="breve" format="1">
  <advance width="730"/>
  <unicode hex="02d8"/>
  <outline>
    <contour>
      <point x="363" y="1261" type="curve" smooth="yes"/>
      <point x="216" y="1261"/>
      <point x="92" y="1344"/>
      <point x="92" y="1516" type="curve" smooth="no"/>
      <point x="236" y="1516" type="line" smooth="no"/>
      <point x="236" y="1435"/>
      <point x="283" y="1399"/>
      <point x="363" y="1399" type="curve" smooth="yes"/>
      <point x="444" y="1399"/>
      <point x="493" y="1435"/>
      <point x="493" y="1516" type="curve" smooth="no"/>
      <point x="637" y="1516" type="line" smooth="no"/>
      <point x="637" y="1344"/>
      <point x="511" y="1261"/>
    </contour>
  </outline>
</glyph>
<glyph name="hungarumlaut" format="1">
  <advance width="906"/>
  <unicode hex="02dd"/>
  <outline>
    <contour>
      <point x="415" y="1203" type="line" smooth="no"/>
      <point x="641" y="1552" type="line" smooth="no"/>
      <point x="831" y="1552" type="line" smooth="no"/>
      <point x="534" y="1203" type="line" smooth="no"/>
    </contour>
    <contour>
      <point x="140" y="1203" type="line" smooth="no"/>
      <point x="364" y="1552" type="line" smooth="no"/>
      <point x="556" y="1552" type="line" smooth="no"/>
      <point x="258" y="1203" type="line" smooth="no"/>
    </contour>
  </outline>
</glyph>
<glyph name="uni0307" format="1">
  <advance width="467"/>
  <unicode hex="0307"/>
  <outline>
    <contour>
      <point x="141" y="1257" type="line" smooth="no"/>
      <point x="141" y="1465" type="line" smooth="no"/>
      <point x="327" y="1465" type="line" smooth="no"/>
      <point x="327" y="1257" type="line" smooth="no"/>
    </contour>
  </outline>
</glyph>
<glyph name="uni0326" format="1">
  <advance width="596"/>
  <unicode hex="0326"/>
  <outline>
    <contour>
      <point x="125" y="-664" type="line" smooth="no"/>
      <point x="228" y="-156" type="line" smooth="no"/>
      <point x="425" y="-156" type="line" smooth="no"/>
      <point x="269" y="-664" type="line" smooth="no"/>
    </contour>
  </outline>
</glyph>
<glyph name="emdash" format="1">
  <advance width="2278"/>
  <unicode hex="2014"/>
  <outline>
    <contour>
      <point x="80" y="491" type="line" smooth="no"/>
      <point x="80" y="659" type="line" smooth="no"/>
      <point x="2199" y="659" type="line" smooth="no"/>
      <point x="2199" y="491" type="line" smooth="no"/>
    </contour>
  </outline>
</glyph>
<glyph name="quotesinglbase" format="1">
  <advance width="533"/>
  <unicode hex="201a"/>
  <outline>
    <contour>
      <point x="121" y="-269" type="line" smooth="no"/>
      <point x="221" y="214" type="line" smooth="no"/>
      <point x="414" y="214" type="line" smooth="no"/>
      <point x="266" y="-269" type="line" smooth="no"/>
    </contour>
  </outline>
</glyph>
<glyph name="quotedblleft" format="1">
  <advance width="776"/>
  <unicode hex="201c"/>
  <outline>
    <contour>
      <point x="399" y="1256" type="line" smooth="no"/>
      <point x="571" y="1537" type="line" smooth="no"/>
      <point x="686" y="1335" type="line" smooth="no"/>
      <point x="557" y="1054" type="line" smooth="no"/>
    </contour>
    <contour>
      <point x="91" y="1256" type="line" smooth="no"/>
      <point x="267" y="1537" type="line" smooth="no"/>
      <point x="380" y="1335" type="line" smooth="no"/>
      <point x="254" y="1054" type="line" smooth="no"/>
    </contour>
  </outline>
</glyph>
<glyph name="dagger" format="1">
  <advance width="931"/>
  <unicode hex="2020"/>
  <outline>
    <contour>
      <point x="377" y="118" type="line" smooth="no"/>
      <point x="377" y="1005" type="line" smooth="no"/>
      <point x="69" y="1005" type="line" smooth="no"/>
      <point x="69" y="1144" type="line" smooth="no"/>
      <point x="377" y="1144" type="line" smooth="no"/>
      <point x="377" y="1521" type="line" smooth="no"/>
      <point x="544" y="1521" type="line" smooth="no"/>
      <point x="544" y="1144" type="line" smooth="no"/>
      <point x="865" y="1144" type="line" smooth="no"/>
      <point x="865" y="1005" type="line" smooth="no"/>
      <point x="538" y="1005" type="line" smooth="no"/>
      <point x="538" y="118" type="line" smooth="no"/>
    </contour>
  </outline>
</glyph>
<glyph name="bullet" format="1">
  <advance width="936"/>
  <unicode hex="2022"/>
  <outline>
    <contour>
      <point x="467" y="383" type="curve" smooth="yes"/>
      <point x="279" y="383"/>
      <point x="140" y="531"/>
      <point x="140" y="718" type="curve" smooth="yes"/>
      <point x="140" y="907"/>
      <point x="289" y="1059"/>
      <point x="472" y="1059" type="curve" smooth="yes"/>
      <point x="656" y="1059"/>
      <point x="798" y="911"/>
      <point x="798" y="724" type="curve" smooth="yes"/>
      <point x="798" y="534"/>
      <point x="652" y="383"/>
    </contour>
  </outline>
</glyph>
<glyph name="guilsinglleft" format="1">
  <advance width="601"/>
  <unicode hex="2039"/>
  <outline>
    <contour>
      <point x="337" y="178" type="line" smooth="no"/>
      <point x="85" y="575" type="line" smooth="no"/>
      <point x="342" y="973" type="line" smooth="no"/>
      <point x="516" y="973" type="line" smooth="no"/>
      <point x="268" y="575" type="line" smooth="no"/>
      <point x="510" y="178" type="line" smooth="no"/>
    </contour>
  </outline>
</glyph>
<glyph name="fraction" format="1">
  <advance width="1158"/>
  <unicode hex="2044"/>
  <outline>
    <contour>
      <point x="50" y="0" type="line" smooth="no"/>
      <point x="938" y="1506" type="line" smooth="no"/>
      <point x="1104" y="1506" type="line" smooth="no"/>
      <point x="217" y="0" type="line" smooth="no"/>
    </contour>
  </outline>
</glyph>
<glyph name="uni2074" format="1">
  <advance width="816"/>
  <unicode hex="2074"/>
  <outline>
    <contour>
      <point x="251" y="965" type="line" smooth="no"/>
      <point x="428" y="965" type="line" smooth="no"/>
      <point x="428" y="965"/>
      <point x="428" y="1246"/>
      <point x="429" y="1263" type="curve" smooth="no"/>
    </contour>
    <contour>
      <point x="430" y="642" type="line" smooth="no"/>
      <point x="430" y="830" type="line" smooth="no"/>
      <point x="88" y="830" type="line" smooth="no"/>
      <point x="88" y="940" type="line" smooth="no"/>
      <point x="425" y="1480" type="line" smooth="no"/>
      <point x="566" y="1480" type="line" smooth="no"/>
      <point x="566" y="965" type="line" smooth="no"/>
      <point x="664" y="965" type="line" smooth="no"/>
      <point x="676" y="830" type="line" smooth="no"/>
      <point x="564" y="830" type="line" smooth="no"/>
      <point x="564" y="642" type="line" smooth="no"/>
    </contour>
  </outline>
</glyph>
<glyph name="partialdiff" format="1">
  <advance width="1190"/>
  <unicode hex="2202"/>
  <outline>
    <contour>
      <point x="507" y="140" type="curve" smooth="yes"/>
      <point x="726" y="140"/>
      <point x="848" y="412"/>
      <point x="877" y="688" type="curve" smooth="no"/>
      <point x="842" y="800"/>
      <point x="758" y="898"/>
      <point x="622" y="898" type="curve" smooth="yes"/>
      <point x="419" y="898"/>
      <point x="278" y="684"/>
      <point x="278" y="445" type="curve" smooth="yes"/>
      <point x="278" y="264"/>
      <point x="360" y="140"/>
    </contour>
    <contour>
      <point x="504" y="-26" type="curve" smooth="yes"/>
      <point x="228" y="-26"/>
      <point x="98" y="180"/>
      <point x="98" y="447" type="curve" smooth="yes"/>
      <point x="98" y="783"/>
      <point x="297" y="1061"/>
      <point x="597" y="1061" type="curve" smooth="yes"/>
      <point x="736" y="1061"/>
      <point x="843" y="985"/>
      <point x="892" y="909" type="curve" smooth="no"/>
      <point x="892" y="966" type="line" smooth="yes"/>
      <point x="890" y="1250"/>
      <point x="790" y="1443"/>
      <point x="578" y="1443" type="curve" smooth="yes"/>
      <point x="468" y="1443"/>
      <point x="371" y="1389"/>
      <point x="294" y="1334" type="curve" smooth="no"/>
      <point x="280" y="1506" type="line" smooth="no"/>
      <point x="366" y="1561"/>
      <point x="472" y="1608"/>
      <point x="602" y="1608" type="curve" smooth="yes"/>
      <point x="934" y="1608"/>
      <point x="1075" y="1336"/>
      <point x="1075" y="892" type="curve" smooth="yes"/>
      <point x="1075" y="448"/>
      <point x="907" y="-26"/>
    </contour>
  </outline>
</glyph>
<glyph name="uni2206" format="1">
  <advance width="1305"/>
  <unicode hex="2206"/>
  <outline>
    <contour>
      <point x="282" y="257" type="line" smooth="no"/>
      <point x="1030" y="257" type="line" smooth="no"/>
      <point x="655" y="1304" type="line" smooth="no"/>
    </contour>
    <contour>
      <point x="91" y="90" type="line" smooth="no"/>
      <point x="90" y="195" type="line" smooth="no"/>
      <point x="573" y="1516" type="line" smooth="no"/>
      <point x="741" y="1516" type="line" smooth="no"/>
      <point x="1222" y="195" type="line" smooth="no"/>
      <point x="1221" y="90" type="line" smooth="no"/>
    </contour>
  </outline>
</glyph>
<glyph name="summation" format="1">
  <advance width="1277"/>
  <unicode hex="2211"/>
  <outline>
    <contour>
      <point x="70" y="-345" type="line" smooth="no"/>
      <point x="70" y="-235" type="line" smooth="no"/>
      <point x="685" y="580" type="line" smooth="no"/>
      <point x="91" y="1378" type="line" smooth="no"/>
      <point x="91" y="1492" type="line" smooth="no"/>
      <point x="1173" y="1492" type="line" smooth="no"/>
      <point x="1173" y="1319" type="line" smooth="no"/>
      <point x="352" y="1319" type="line" smooth="no"/>
      <point x="917" y="588" type="line" smooth="no"/>
      <point x="325" y="-165" type="line" smooth="no"/>
      <point x="1214" y="-165" type="line" smooth="no"/>
      <point x="1214" y="-345" type="line" smooth="no"/>
    </contour>
  </outline>
</glyph>
<glyph name="infinity" format="1">
  <advance width="1748"/>
  <unicode hex="221e"/>
  <outline>
    <contour>
      <point x="481" y="395" type="curve" smooth="yes"/>
      <point x="611" y="395"/>
      <point x="713" y="507"/>
      <point x="794" y="626" type="curve" smooth="no"/>
      <point x="712" y="754"/>
      <point x="613" y="862"/>
      <point x="473" y="862" type="curve" smooth="yes"/>
      <point x="337" y="862"/>
      <point x="258" y="758"/>
      <point x="258" y="629" type="curve" smooth="yes"/>
      <point x="258" y="505"/>
      <point x="346" y="395"/>
    </contour>
    <contour>
      <point x="1276" y="395" type="curve" smooth="yes"/>
      <point x="1431" y="395"/>
      <point x="1482" y="529"/>
      <point x="1482" y="655" type="curve" smooth="no"/>
      <point x="1480" y="772"/>
      <point x="1396" y="862"/>
      <point x="1271" y="862" type="curve" smooth="yes"/>
      <point x="1138" y="862"/>
      <point x="1038" y="744"/>
      <point x="961" y="629" type="curve" smooth="no"/>
      <point x="1062" y="489"/>
      <point x="1147" y="395"/>
    </contour>
    <contour>
      <point x="480" y="247" type="curve" smooth="yes"/>
      <point x="256" y="247"/>
      <point x="117" y="430"/>
      <point x="117" y="649" type="curve" smooth="yes"/>
      <point x="117" y="851"/>
      <point x="271" y="1005"/>
      <point x="488" y="1005" type="curve" smooth="yes"/>
      <point x="656" y="1005"/>
      <point x="773" y="888"/>
      <point x="877" y="747" type="curve" smooth="no"/>
      <point x="979" y="888"/>
      <point x="1096" y="1006"/>
      <point x="1274" y="1006" type="curve" smooth="yes"/>
      <point x="1499" y="1006"/>
      <point x="1633" y="852"/>
      <point x="1633" y="632" type="curve" smooth="yes"/>
      <point x="1633" y="408"/>
      <point x="1477" y="247"/>
      <point x="1272" y="247" type="curve" smooth="yes"/>
      <point x="1110" y="247"/>
      <point x="993" y="349"/>
      <point x="877" y="505" type="curve" smooth="no"/>
      <point x="772" y="365"/>
      <point x="653" y="247"/>
    </contour>
  </outline>
</glyph>
<glyph name="integral" format="1">
  <advance width="732"/>
  <unicode hex="222b"/>
  <outline>
    <contour>
      <point x="210" y="-417" type="curve" smooth="yes"/>
      <point x="157" y="-417"/>
      <point x="97" y="-400"/>
      <point x="72" y="-393" type="curve" smooth="no"/>
      <point x="71" y="-231" type="line" smooth="no"/>
      <point x="84" y="-237"/>
      <point x="148" y="-252"/>
      <point x="183" y="-252" type="curve" smooth="yes"/>
      <point x="299" y="-252"/>
      <point x="320" y="-180"/>
      <point x="320" y="-39" type="curve" smooth="yes"/>
      <point x="320" y="1309" type="line" smooth="yes"/>
      <point x="320" y="1534"/>
      <point x="396" y="1710"/>
      <point x="625" y="1710" type="curve" smooth="yes"/>
      <point x="679" y="1710"/>
      <point x="737" y="1693"/>
      <point x="762" y="1685" type="curve" smooth="no"/>
      <point x="764" y="1522" type="line" smooth="no"/>
      <point x="750" y="1529"/>
      <point x="685" y="1544"/>
      <point x="650" y="1544" type="curve" smooth="yes"/>
      <point x="533" y="1544"/>
      <point x="511" y="1475"/>
      <point x="511" y="1333" type="curve" smooth="yes"/>
      <point x="511" y="-16" type="line" smooth="yes"/>
      <point x="511" y="-242"/>
      <point x="438" y="-417"/>
    </contour>
  </outline>
</glyph>
<glyph name="notequal" format="1">
  <advance width="1257"/>
  <unicode hex="2260"/>
  <outline>
    <contour>
      <point x="422" y="46" type="line" smooth="no"/>
      <point x="282" y="68" type="line" smooth="no"/>
      <point x="403" y="331" type="line" smooth="no"/>
      <point x="139" y="331" type="line" smooth="no"/>
      <point x="130" y="479" type="line" smooth="no"/>
      <point x="477" y="479" type="line" smooth="no"/>
      <point x="612" y="751" type="line" smooth="no"/>
      <point x="139" y="751" type="line" smooth="no"/>
      <point x="128" y="902" type="line" smooth="no"/>
      <point x="681" y="902" type="line" smooth="no"/>
      <point x="820" y="1178" type="line" smooth="no"/>
      <point x="820" y="1178"/>
      <point x="961" y="1158"/>
      <point x="962" y="1158" type="curve" smooth="yes"/>
      <point x="844" y="902" type="line" smooth="no"/>
      <point x="1123" y="902" type="line" smooth="no"/>
      <point x="1135" y="750" type="line" smooth="no"/>
      <point x="774" y="750" type="line" smooth="no"/>
      <point x="635" y="479" type="line" smooth="no"/>
      <point x="1125" y="479" type="line" smooth="no"/>
      <point x="1135" y="331" type="line" smooth="no"/>
      <point x="564" y="331" type="line" smooth="no"/>
    </contour>
  </outline>
</glyph>
<glyph name="lessequal" format="1">
  <advance width="1205"/>
  <unicode hex="2264"/>
  <outline>
    <contour>
      <point x="121" y="5" type="line" smooth="no"/>
      <point x="121" y="149" type="line" smooth="no"/>
      <point x="1078" y="150" type="line" smooth="no"/>
      <point x="1078" y="5" type="line" smooth="no"/>
    </contour>
    <contour>
      <point x="1063" y="228" type="line" smooth="no"/>
      <point x="139" y="699" type="line" smooth="no"/>
      <point x="139" y="803" type="line" smooth="no"/>
      <point x="1063" y="1291" type="line" smooth="no"/>
      <point x="1063" y="1120" type="line" smooth="no"/>
      <point x="339" y="754" type="line" smooth="no"/>
      <point x="1063" y="400" type="line" smooth="no"/>
    </contour>
  </outline>
</glyph>
<glyph name="greaterequal" format="1">
  <advance width="1205"/>
  <unicode hex="2265"/>
  <outline>
    <contour>
      <point x="133" y="5" type="line" smooth="no"/>
      <point x="133" y="150" type="line" smooth="no"/>
      <point x="1088" y="149" type="line" smooth="no"/>
      <point x="1088" y="5" type="line" smooth="no"/>
    </contour>
    <contour>
      <point x="149" y="229" type="line" smooth="no"/>
      <point x="149" y="401" type="line" smooth="no"/>
      <point x="877" y="752" type="line" smooth="no"/>
      <point x="151" y="1121" type="line" smooth="no"/>
      <point x="151" y="1292" type="line" smooth="no"/>
      <point x="1078" y="803" type="line" smooth="no"/>
      <point x="1078" y="701" type="line" smooth="no"/>
    </contour>
  </outline>
</glyph>
<glyph name="uniFB00" format="1">
  <advance width="1409"/>
  <unicode hex="fb00"/>
  <outline>
    <contour>
      <point x="207" y="0" type="line" smooth="no"/>
      <point x="207" y="947" type="line" smooth="no"/>
      <point x="31" y="947" type="line" smooth="no"/>
      <point x="47" y="1081" type="line" smooth="no"/>
      <point x="207" y="1098" type="line" smooth="no"/>
      <point x="207" y="1153" type="line" smooth="no"/>
      <point x="208" y="1423"/>
      <point x="301" y="1551"/>
      <point x="556" y="1551" type="curve" smooth="yes"/>
      <point x="614" y="1551"/>
      <point x="679" y="1544"/>
      <point x="742" y="1534" type="curve" smooth="no"/>
      <point x="724" y="1368" type="line" smooth="no"/>
      <point x="678" y="1374"/>
      <point x="631" y="1380"/>
      <point x="592" y="1380" type="curve" smooth="yes"/>
      <point x="466" y="1380"/>
      <point x="425" y="1318"/>
      <point x="425" y="1162" type="curve" smooth="yes"/>
      <point x="425" y="1098" type="line" smooth="no"/>
      <point x="907" y="1098" type="line" smooth="no"/>
      <point x="907" y="1153" type="line" smooth="no"/>
      <point x="908" y="1423"/>
      <point x="1001" y="1551"/>
      <point x="1256" y="1551" type="curve" smooth="yes"/>
      <point x="1314" y="1551"/>
      <point x="1379" y="1544"/>
      <point x="1441" y="1534" type="curve" smooth="no"/>
      <point x="1424" y="1368" type="line" smooth="no"/>
      <point x="1377" y="1374"/>
      <point x="1331" y="1380"/>
      <point x="1292" y="1380" type="curve" smooth="yes"/>
      <point x="1165" y="1380"/>
      <point x="1125" y="1318"/>
      <point x="1125" y="1162" type="curve" smooth="yes"/>
      <point x="1125" y="1098" type="line" smooth="no"/>
      <point x="1385" y="1098" type="line" smooth="no"/>
      <point x="1385" y="947" type="line" smooth="no"/>
      <point x="1125" y="947" type="line" smooth="no"/>
      <point x="1125" y="0" type="line" smooth="no"/>
      <point x="907" y="0" type="line" smooth="no"/>
      <point x="907" y="947" type="line" smooth="no"/>
      <point x="425" y="947" type="line" smooth="no"/>
      <point x="425" y="0" type="line" smooth="no"/>
    </contour>
  </outline>
</glyph>
<glyph name="uniFB01" format="1">
  <advance width="1139"/>
  <unicode hex="fb01"/>
  <outline>
    <contour>
      <point x="799" y="1277" type="line" smooth="no"/>
      <point x="799" y="1489" type="line" smooth="no"/>
      <point x="1014" y="1489" type="line" smooth="no"/>
      <point x="1014" y="1277" type="line" smooth="no"/>
    </contour>
    <contour>
      <point x="182" y="0" type="line" smooth="no"/>
      <point x="182" y="959" type="line" smooth="no"/>
      <point x="15" y="959" type="line" smooth="no"/>
      <point x="15" y="1098" type="line" smooth="no"/>
      <point x="182" y="1098" type="line" smooth="no"/>
      <point x="182" y="1134" type="line" smooth="no"/>
      <point x="186" y="1430"/>
      <point x="253" y="1540"/>
      <point x="560" y="1540" type="curve" smooth="yes"/>
      <point x="630" y="1540" type="line" smooth="no"/>
      <point x="651" y="1379" type="line" smooth="no"/>
      <point x="569" y="1379" type="line" smooth="yes"/>
      <point x="414" y="1379"/>
      <point x="397" y="1320"/>
      <point x="397" y="1152" type="curve" smooth="yes"/>
      <point x="397" y="1098" type="line" smooth="no"/>
      <point x="1014" y="1098" type="line" smooth="no"/>
      <point x="1014" y="0" type="line" smooth="no"/>
      <point x="799" y="0" type="line" smooth="no"/>
      <point x="799" y="959" type="line" smooth="no"/>
      <point x="397" y="959" type="line" smooth="no"/>
      <point x="397" y="0" type="line" smooth="no"/>
    </contour>
  </outline>
</glyph>
<glyph name="fj" format="1">
  <advance width="1281"/>
  <outline>
    <contour>
      <point x="207" y="0" type="line" smooth="no"/>
      <point x="207" y="947" type="line" smooth="no"/>
      <point x="31" y="947" type="line" smooth="no"/>
      <point x="47" y="1081" type="line" smooth="no"/>
      <point x="207" y="1098" type="line" smooth="no"/>
      <point x="207" y="1153" type="line" smooth="no"/>
      <point x="208" y="1423"/>
      <point x="301" y="1551"/>
      <point x="556" y="1551" type="curve" smooth="yes"/>
      <point x="614" y="1551"/>
      <point x="679" y="1544"/>
      <point x="742" y="1534" type="curve" smooth="no"/>
      <point x="724" y="1368" type="line" smooth="no"/>
      <point x="678" y="1374"/>
      <point x="631" y="1380"/>
      <point x="592" y="1380" type="curve" smooth="yes"/>
      <point x="466" y="1380"/>
      <point x="425" y="1318"/>
      <point x="425" y="1162" type="curve" smooth="yes"/>
      <point x="425" y="1098" type="line" smooth="no"/>
      <point x="1174" y="1098" type="line" smooth="no"/>
      <point x="1174" y="-50" type="line" smooth="yes"/>
      <point x="1174" y="-340"/>
      <point x="1111" y="-462"/>
      <point x="796" y="-462" type="curve" smooth="yes"/>
      <point x="741" y="-462" type="line" smooth="no"/>
      <point x="715" y="-287" type="line" smooth="no"/>
      <point x="770" y="-287" type="line" smooth="yes"/>
      <point x="943" y="-287"/>
      <point x="955" y="-229"/>
      <point x="955" y="-64" type="curve" smooth="yes"/>
      <point x="955" y="947" type="line" smooth="no"/>
      <point x="425" y="947" type="line" smooth="no"/>
      <point x="425" y="0" type="line" smooth="no"/>
    </contour>
    <contour>
      <point x="955" y="1277" type="line" smooth="no"/>
      <point x="955" y="1489" type="line" smooth="no"/>
      <point x="1174" y="1489" type="line" smooth="no"/>
      <point x="1174" y="1277" type="line" smooth="no"/>
    </contour>
  </outline>
</glyph>
